<svg width="47" height="52" viewBox="0 0 47 52" fill="none" xmlns="http://www.w3.org/2000/svg">
<path d="M40.4941 11.6991L35.6244 6.39146C35.2809 6.01505 34.8726 5.7164 34.4229 5.51266C33.9733 5.30891 33.4912 5.2041 33.0043 5.20422C32.0121 5.20422 31.0793 5.62824 30.3797 6.39146L25.1396 12.1082C24.7946 12.4829 24.5209 12.9283 24.3341 13.4189C24.1473 13.9094 24.0513 14.4353 24.0514 14.9665C24.0514 16.049 24.44 17.0666 25.1396 17.8298L28.9714 22.0101C28.0745 24.1669 26.8274 26.129 25.2905 27.8016C23.7575 29.4824 21.9591 30.8478 19.9818 31.8322L16.1501 27.652C15.8066 27.2756 15.3983 26.9769 14.9486 26.7732C14.499 26.5694 14.0169 26.4646 13.53 26.4647C12.5378 26.4647 11.605 26.8887 10.9054 27.652L5.66077 33.3637C5.31532 33.7391 5.04133 34.1854 4.85456 34.6768C4.6678 35.1682 4.57194 35.695 4.57251 36.227C4.57251 37.3095 4.96118 38.3271 5.66077 39.0903L10.5213 44.393C11.637 45.6151 13.178 46.3085 14.76 46.3085C15.0938 46.3085 15.4139 46.2786 15.7294 46.2187C21.8932 45.1113 28.0066 41.5346 32.9403 36.1572C37.8695 30.7847 41.1434 24.1202 42.1722 17.3759C42.4831 15.3157 41.8567 13.1956 40.4941 11.6991Z" fill="#1ABA64"/>
</svg>
