<svg width="48" height="52" viewBox="0 0 48 52" fill="none" xmlns="http://www.w3.org/2000/svg">
<g clip-path="url(#clip0_1_23)">
<path d="M42.6096 9.21563C42.4323 9.1957 42.2537 9.1957 42.0764 9.21563H5.65893C5.42553 9.21955 5.19367 9.25773 4.9696 9.32914L23.7636 29.7474L42.6096 9.21563Z" fill="#F2F2F2"/>
<path d="M44.5347 11.188L25.5976 31.7623C25.1102 32.2909 24.4509 32.5875 23.7637 32.5875C23.0765 32.5875 22.4172 32.2909 21.9298 31.7623L3.16184 11.3441C3.10415 11.5754 3.07356 11.8138 3.0708 12.0535V40.4319C3.0708 41.1846 3.34486 41.9064 3.83269 42.4386C4.32052 42.9708 4.98215 43.2697 5.67205 43.2697H42.0895C42.7794 43.2697 43.441 42.9708 43.9288 42.4386C44.4167 41.9064 44.6907 41.1846 44.6907 40.4319V12.0535C44.6804 11.7579 44.6277 11.4659 44.5347 11.188V11.188ZM7.4539 40.4319H5.64603V38.4029L15.1016 28.1725L16.9354 30.1731L7.4539 40.4319ZM42.0635 40.4319H40.2426L30.7611 30.1731L32.5949 28.1725L42.0505 38.4029L42.0635 40.4319Z" fill="#F2F2F2"/>
</g>
<defs>
<clipPath id="clip0_1_23">
<rect width="46.8225" height="51.0811" fill="white" transform="translate(0.560547 0.702148)"/>
</clipPath>
</defs>
</svg>
