<svg width="227" height="188" viewBox="0 0 227 188" fill="none" xmlns="http://www.w3.org/2000/svg">
<path d="M192.851 28.4756L113.217 94.3626" stroke="#F4A460" stroke-linecap="round" stroke-linejoin="round"/>
<path d="M34.1914 159.746L113.826 93.8594" stroke="#F4A460" stroke-linecap="round" stroke-linejoin="round"/>
<path d="M113.521 1.2876V94.4658" stroke="#F4A460" stroke-linecap="round" stroke-linejoin="round"/>
<path d="M113.521 186.933V93.7549" stroke="#F4A460" stroke-linecap="round" stroke-linejoin="round"/>
<path d="M34.1914 28.4756L113.826 94.3626" stroke="#F4A460" stroke-linecap="round" stroke-linejoin="round"/>
<path d="M192.851 159.746L113.217 93.8594" stroke="#F4A460" stroke-linecap="round" stroke-linejoin="round"/>
<path d="M1.33008 94.1099H113.95" stroke="#F4A460" stroke-linecap="round" stroke-linejoin="round"/>
<path d="M225.709 94.1099H113.089" stroke="#F4A460" stroke-linecap="round" stroke-linejoin="round"/>
<path d="M157.693 57.561C157.693 57.561 145.072 78.4461 176.625 94.1099" stroke="#F4A460" stroke-linecap="round" stroke-linejoin="round"/>
<path d="M149.095 65C149.095 65 138.491 81.5714 165 94" stroke="#F4A460" stroke-linecap="round" stroke-linejoin="round"/>
<path d="M142.211 71C142.211 71 131.018 84.1429 159 94" stroke="#F4A460" stroke-linecap="round" stroke-linejoin="round"/>
<path d="M131.745 79C131.745 79 122.909 87.5714 145 94" stroke="#F4A460" stroke-linecap="round" stroke-linejoin="round"/>
<path d="M136.211 75C136.211 75 125.018 85.8571 153 94" stroke="#F4A460" stroke-linecap="round" stroke-linejoin="round"/>
<path d="M167.143 50.5752C167.143 50.5752 154.465 75.8508 186.16 94.8075" stroke="#F4A460" stroke-linecap="round" stroke-linejoin="round"/>
<path d="M157.695 57.5612C157.695 57.5612 132.453 68.0038 113.521 41.8975" stroke="#F4A460" stroke-linecap="round" stroke-linejoin="round"/>
<path d="M149 63.9055C149 63.9055 129 74.5091 114 48" stroke="#F4A460" stroke-linecap="round" stroke-linejoin="round"/>
<path d="M142 69.6727C142 69.6727 126 81.4545 114 52" stroke="#F4A460" stroke-linecap="round" stroke-linejoin="round"/>
<path d="M131.723 78.7C131.723 78.7 121.596 89.8673 114 61.9492" stroke="#F4A460" stroke-linecap="round" stroke-linejoin="round"/>
<path d="M138.053 73.7918C138.053 73.7918 124.309 84.2146 114 58.1577" stroke="#F4A460" stroke-linecap="round" stroke-linejoin="round"/>
<path d="M167 49.9055C167 49.9055 136.714 60.5091 114 34" stroke="#F4A460" stroke-linecap="round" stroke-linejoin="round"/>
<path d="M69.3457 130.659C69.3457 130.659 94.5885 120.217 113.521 146.323" stroke="#F4A460" stroke-linecap="round" stroke-linejoin="round"/>
<path d="M79 123.095C79 123.095 98.4286 112.491 113 139" stroke="#F4A460" stroke-linecap="round" stroke-linejoin="round"/>
<path d="M85 118.095C85 118.095 101 107.491 113 134" stroke="#F4A460" stroke-linecap="round" stroke-linejoin="round"/>
<path d="M96 109.095C96 109.095 105.714 98.4909 113 125" stroke="#F4A460" stroke-linecap="round" stroke-linejoin="round"/>
<path d="M89 114.978C89 114.978 103.286 104.964 114 130" stroke="#F4A460" stroke-linecap="round" stroke-linejoin="round"/>
<path d="M58.2979 139.835C58.2979 139.835 89.4042 129.412 112.734 155.469" stroke="#F4A460" stroke-linecap="round" stroke-linejoin="round"/>
<path d="M69.3452 130.659C69.3452 130.659 81.9665 109.774 50.4131 94.1099" stroke="#F4A460" stroke-linecap="round" stroke-linejoin="round"/>
<path d="M77.5564 123C77.5564 123 89.9273 106.429 59 94" stroke="#F4A460" stroke-linecap="round" stroke-linejoin="round"/>
<path d="M83.5564 119C83.5564 119 95.9273 104.714 65 94" stroke="#F4A460" stroke-linecap="round" stroke-linejoin="round"/>
<path d="M96.3041 108.709C96.3041 108.709 108.982 100.765 77.2871 94.8071" stroke="#F4A460" stroke-linecap="round" stroke-linejoin="round"/>
<path d="M89.975 113.764C89.975 113.764 102.653 102.931 70.958 94.8071" stroke="#F4A460" stroke-linecap="round" stroke-linejoin="round"/>
<path d="M59.5922 139.039C59.5922 139.039 72.2702 113.764 40.5752 94.8071" stroke="#F4A460" stroke-linecap="round" stroke-linejoin="round"/>
<path d="M69.3457 57.5612C69.3457 57.5612 94.5885 68.0038 113.521 41.8975" stroke="#F4A460" stroke-linecap="round" stroke-linejoin="round"/>
<path d="M77 62.9055C77 62.9055 98.1429 73.5091 114 47" stroke="#F4A460" stroke-linecap="round" stroke-linejoin="round"/>
<path d="M83 68.9055C83 68.9055 100.143 79.5091 113 53" stroke="#F4A460" stroke-linecap="round" stroke-linejoin="round"/>
<path d="M95.0107 78.7C95.0107 78.7 105.138 89.8673 112.734 61.9492" stroke="#F4A460" stroke-linecap="round" stroke-linejoin="round"/>
<path d="M89.9473 73.7918C89.9473 73.7918 102.969 84.2145 112.734 58.1577" stroke="#F4A460" stroke-linecap="round" stroke-linejoin="round"/>
<path d="M60 49.9055C60 49.9055 90.2857 60.5091 113 34" stroke="#F4A460" stroke-linecap="round" stroke-linejoin="round"/>
<path d="M69.3452 57.561C69.3452 57.561 81.9665 78.4461 50.4131 94.1099" stroke="#F4A460" stroke-linecap="round" stroke-linejoin="round"/>
<path d="M83.5564 70C83.5564 70 95.9273 83.7143 65 94" stroke="#F4A460" stroke-linecap="round" stroke-linejoin="round"/>
<path d="M76.7891 63C76.7891 63 87.9818 81.2857 60 95" stroke="#F4A460" stroke-linecap="round" stroke-linejoin="round"/>
<path d="M94.0668 78.3779C94.0668 78.3779 105.253 87.0438 77.2871 93.5433" stroke="#F4A460" stroke-linecap="round" stroke-linejoin="round"/>
<path d="M89.975 74.5869C89.975 74.5869 102.653 85.4193 70.958 93.5436" stroke="#F4A460" stroke-linecap="round" stroke-linejoin="round"/>
<path d="M59.5922 50.5752C59.5922 50.5752 72.2702 75.8508 40.5752 94.8075" stroke="#F4A460" stroke-linecap="round" stroke-linejoin="round"/>
<path d="M157.693 130.659C157.693 130.659 145.072 109.774 176.625 94.1099" stroke="#F4A460" stroke-linecap="round" stroke-linejoin="round"/>
<path d="M142.444 117C142.444 117 130.073 103.857 161 94" stroke="#F4A460" stroke-linecap="round" stroke-linejoin="round"/>
<path d="M147.444 122C147.444 122 135.073 106 166 94" stroke="#F4A460" stroke-linecap="round" stroke-linejoin="round"/>
<path d="M130.444 108C130.444 108 118.073 100 149 94" stroke="#F4A460" stroke-linecap="round" stroke-linejoin="round"/>
<path d="M136.211 113C136.211 113 125.018 102.143 153 94" stroke="#F4A460" stroke-linecap="round" stroke-linejoin="round"/>
<path d="M167.143 139.039C167.143 139.039 154.465 113.764 186.16 94.8071" stroke="#F4A460" stroke-linecap="round" stroke-linejoin="round"/>
<path d="M157.695 130.659C157.695 130.659 132.453 120.217 113.521 146.323" stroke="#F4A460" stroke-linecap="round" stroke-linejoin="round"/>
<path d="M143 119.095C143 119.095 126.429 108.491 114 135" stroke="#F4A460" stroke-linecap="round" stroke-linejoin="round"/>
<path d="M149 123.095C149 123.095 129 112.491 114 139" stroke="#F4A460" stroke-linecap="round" stroke-linejoin="round"/>
<path d="M138.053 114.559C138.053 114.559 124.309 104.136 114 130.193" stroke="#F4A460" stroke-linecap="round" stroke-linejoin="round"/>
<path d="M132 109.095C132 109.095 121.714 98.4909 114 125" stroke="#F4A460" stroke-linecap="round" stroke-linejoin="round"/>
<path d="M169.702 141.098C169.702 141.098 137.872 130.676 114 156.732" stroke="#F4A460" stroke-linecap="round" stroke-linejoin="round"/>
</svg>
