<svg width="595" height="707" viewBox="0 0 595 707" fill="none" xmlns="http://www.w3.org/2000/svg">
<path d="M538.266 84.1188H56.7337C25.4005 84.1188 0 110.977 0 144.107V646.783C0 679.914 25.4005 706.771 56.7337 706.771H538.266C569.599 706.771 595 679.914 595 646.783V144.107C595 110.977 569.599 84.1188 538.266 84.1188Z" fill="#F2F2F2"/>
<path d="M310.459 339.126C308.841 337.348 307.978 335.006 308.052 332.597C308.126 330.189 309.132 327.904 310.856 326.23C311.212 325.895 311.595 325.591 312.001 325.319L304.244 294.003L318.668 284.456L324.679 328.51C325.668 330.289 326.044 332.346 325.747 334.362C325.45 336.377 324.498 338.237 323.039 339.651C322.201 340.448 321.215 341.071 320.138 341.485C319.06 341.898 317.912 342.095 316.759 342.063C315.607 342.03 314.471 341.77 313.418 341.297C312.365 340.824 311.415 340.147 310.623 339.305C310.568 339.246 310.513 339.187 310.459 339.126Z" fill="#A0616A"/>
<path d="M325.412 308.253L306.494 310.018L278.399 210.698C278.318 210.422 269.999 182.53 261.596 178.167C258.466 176.542 257.319 175.571 257.364 174.585C257.412 173.566 258.683 173.05 260.441 172.335C262.209 171.7 263.879 170.815 265.399 169.707C269.233 166.661 267.548 163.728 265.215 159.667C264.762 158.879 264.291 158.06 263.841 157.203C262.512 154.672 263.998 143.918 268.26 125.242C269.527 119.653 272.525 114.612 276.823 110.844C281.121 107.076 286.497 104.776 292.178 104.273C295.768 103.949 299.386 104.351 302.819 105.455C306.253 106.558 309.431 108.341 312.169 110.699C314.906 113.056 317.146 115.94 318.757 119.181C320.369 122.422 321.318 125.954 321.55 129.57L325.246 187.087L325.412 308.253Z" fill="#1ABA64"/>
<path d="M251.114 662.001L237.954 661.891L232.127 609.677L251.552 609.842L251.114 662.001Z" fill="#C79191"/>
<path d="M208.96 683.036C208.948 684.604 209.556 686.113 210.65 687.232C211.743 688.35 213.233 688.987 214.793 689.002L240.959 689.222L245.54 679.889L247.222 689.269L257.095 689.359L254.602 655.902L251.167 655.673L237.157 654.702L232.637 654.398L232.557 663.864L211.538 678.194C210.751 678.731 210.105 679.453 209.656 680.296C209.207 681.139 208.968 682.08 208.96 683.036Z" fill="#232320"/>
<path d="M389.674 652.337L377.095 656.223L355.86 608.213L374.428 602.478L389.674 652.337Z" fill="#C79191"/>
<path d="M355.803 685.18C356.263 686.679 357.296 687.933 358.674 688.668C360.053 689.402 361.665 689.557 363.157 689.098L388.168 681.368L389.732 671.081L394.153 679.513L403.592 676.604L391.168 645.464L387.824 646.287L374.176 649.613L369.775 650.694L372.542 659.743L356.807 679.782C356.218 680.533 355.819 681.417 355.644 682.357C355.469 683.297 355.524 684.266 355.803 685.18Z" fill="#232320"/>
<path d="M224.642 222.966L199.528 296.328L198.699 302.199C192.37 308.238 200.32 310.228 197.339 311.82C194.359 313.413 192.354 317.878 196.371 318.675C200.388 319.473 198.814 609.851 215.896 620.961C232.979 632.072 272.414 644.408 269.276 628.139C266.139 611.871 267.289 410.961 267.289 410.961C267.289 410.961 351.141 624.867 356.873 624.934C362.605 625.002 403.575 609.534 401.679 602.117C399.784 594.701 325.372 408.999 330.423 401.857C335.474 394.715 337.397 391.61 332.416 391.142C327.435 390.675 325.963 393.421 325.694 386.493C325.425 379.564 324.565 362.48 324.565 362.48C324.565 362.48 320.957 294.91 295.691 257.579L293.536 235.398L224.642 222.966Z" fill="#100D0D"/>
<path d="M287.386 82.8992L254.081 87.6658L252.071 111.907L235.636 137.748C235.636 137.748 199.104 163.589 224.583 204.41L222.93 227.05L305.328 260.381L313.256 115.168L287.386 82.8992Z" fill="#1ABA64"/>
<path d="M231.547 347.497C230.499 345.33 230.334 342.837 231.087 340.55C231.84 338.262 233.451 336.36 235.578 335.248C236.014 335.028 236.467 334.846 236.933 334.702L238.361 302.462L254.892 297.435L248.184 341.387C248.629 343.375 248.406 345.454 247.551 347.301C246.696 349.149 245.257 350.659 243.458 351.598C242.429 352.122 241.308 352.438 240.158 352.526C239.008 352.615 237.852 352.475 236.756 352.114C235.659 351.754 234.645 351.179 233.769 350.425C232.894 349.67 232.175 348.749 231.653 347.715C231.617 347.643 231.582 347.57 231.547 347.497Z" fill="#C79191"/>
<path d="M254.621 322.176L235.985 318.458L237.166 215.208C237.166 214.92 237.086 185.802 230.265 179.216C227.724 176.763 226.9 175.505 227.222 174.572C227.556 173.609 228.92 173.477 230.808 173.295C232.683 173.192 234.534 172.821 236.305 172.194C240.842 170.37 240.058 167.076 238.971 162.516C238.76 161.631 238.54 160.711 238.351 159.76C237.793 156.954 242.262 147.07 251.634 130.385C254.431 125.389 258.732 121.414 263.919 119.031C269.105 116.647 274.91 115.979 280.499 117.122C284.032 117.838 287.387 119.258 290.366 121.298C293.345 123.338 295.888 125.956 297.845 128.999C299.802 132.042 301.133 135.448 301.76 139.015C302.388 142.583 302.298 146.241 301.497 149.774L288.759 205.971L254.621 322.176Z" fill="#1ABA64"/>
<path d="M267.391 82.0169C287.945 82.0169 304.607 65.2689 304.607 44.6092C304.607 23.9494 287.945 7.20142 267.391 7.20142C246.837 7.20142 230.175 23.9494 230.175 44.6092C230.175 65.2689 246.837 82.0169 267.391 82.0169Z" fill="#C79191"/>
<path d="M316.711 96.4804C321.705 103.666 325.046 111.878 326.491 120.522C322.466 123.111 317.781 124.47 313.002 124.436C312.84 123.807 312.678 123.178 312.492 122.549C311.108 117.679 309.048 113.028 306.374 108.734C306.74 113.364 306.116 118.019 304.543 122.386C302.017 121.233 299.312 120.531 296.547 120.313C294.294 120.313 292.072 120.839 290.057 121.85C287.716 114.046 285.561 106.871 284.031 101.722C283.984 114.628 265.165 125.881 244.63 124.25C243.888 123.784 251.328 102.561 250.609 102.072C248.964 100.977 247.365 99.7885 245.765 98.6237C252.487 88.1868 259.788 77.0045 258.536 75.3271C258.629 77.4005 251.258 87.3714 243.239 96.7832C238.789 93.4984 264.075 40.0562 251.583 35.723C251.374 37.61 248.616 37.6101 245.256 37.214C244.369 34.1005 243.05 31.1282 241.339 28.3846C241.561 31.1483 241.23 33.9288 240.365 36.5616C237.046 36.5626 233.737 36.914 230.492 37.61C229.741 36.4223 228.912 35.2861 228.012 34.2087C228.1 35.5218 228.062 36.8404 227.896 38.1459C225.611 38.4063 223.411 39.1699 221.453 40.3823C218.857 39.4272 223.284 35.1173 221.661 32.8808C217.536 27.2896 223.654 19.1358 227.525 13.3583C231.698 7.55364 237.819 3.46232 244.758 1.83948C251.698 0.216652 258.987 1.17186 265.28 4.52888C265.837 2.59527 268.688 1.31396 272.35 0.451986C273.901 0.108126 275.489 -0.0404927 277.078 0.00941692C292.838 0.288976 314.717 13.3583 315.575 29.1767C315.644 30.7608 315.76 32.4848 315.876 34.3252C316.989 52.0306 315.621 68.3616 327.65 81.3144C332.007 85.997 332.054 108.175 330.385 119.591C326.051 115.001 322.968 97.156 316.711 96.4804Z" fill="#100D0D"/>
<path d="M103.439 687.394C103.438 687.758 103.508 688.119 103.646 688.456C103.785 688.793 103.988 689.099 104.244 689.356C104.5 689.614 104.805 689.818 105.14 689.957C105.475 690.096 105.834 690.167 106.197 690.166H489.292C490.023 690.166 490.725 689.874 491.242 689.354C491.759 688.834 492.05 688.129 492.05 687.394C492.05 686.658 491.759 685.953 491.242 685.433C490.725 684.913 490.023 684.621 489.292 684.621H106.197C105.834 684.62 105.475 684.691 105.14 684.83C104.805 684.969 104.5 685.173 104.244 685.431C103.988 685.688 103.785 685.994 103.646 686.331C103.508 686.668 103.438 687.029 103.439 687.394Z" fill="#CCCCCC"/>
</svg>
