<svg width="516" height="533" viewBox="0 0 516 533" fill="none" xmlns="http://www.w3.org/2000/svg">
<g clip-path="url(#clip0_9_16)">
<path d="M197.534 84.8122C211.044 84.8122 221.995 74.1361 221.995 60.9665C221.995 47.7969 211.044 37.1208 197.534 37.1208C184.024 37.1208 173.072 47.7969 173.072 60.9665C173.072 74.1361 184.024 84.8122 197.534 84.8122Z" fill="#BA1A3F"/>
<path d="M252.281 49.6751C251.591 47.47 250.254 45.5097 248.436 44.0356C246.618 42.5615 244.397 41.6379 242.047 41.3784C241.992 41.374 241.937 41.374 241.882 41.3784C241.817 41.3583 241.749 41.3434 241.681 41.3338C233.491 40.2978 224.384 42.8163 218.255 48.2997C215.98 50.3032 214.16 52.7492 212.914 55.48C211.778 53.9672 210.281 52.7472 208.552 51.9255C206.823 51.1039 204.915 50.7054 202.992 50.7646C200.513 50.9244 198.145 51.8257 196.21 53.3455C194.275 54.8654 192.869 56.93 192.182 59.2577C192.106 59.5421 192.127 59.8426 192.241 60.1146C192.355 60.3866 192.556 60.6154 192.814 60.767C193.551 61.3813 194.427 61.816 195.37 62.0351C197.395 62.4549 199.438 62.8389 201.481 63.1872C205.475 63.866 209.491 64.4167 213.528 64.8394C216.194 65.1162 218.866 65.3365 221.544 65.5003C227.078 65.8396 232.639 65.92 238.181 65.7503C240.93 65.661 243.568 65.5717 246.078 64.3929C247.908 63.5159 249.471 62.1892 250.613 60.5437C251.689 58.9609 252.396 57.1675 252.684 55.2897C252.972 53.4119 252.834 51.4954 252.281 49.6751V49.6751Z" fill="#E6E6E6"/>
<path d="M201.957 84.4156C201.911 83.4164 201.738 82.4266 201.444 81.4684C200.751 79.2636 199.412 77.3039 197.593 75.8301C195.773 74.3563 193.552 73.4324 191.202 73.1718C191.15 73.1673 191.098 73.1673 191.046 73.1718C190.977 73.1527 190.906 73.1378 190.835 73.1272C186.302 72.5859 181.702 73.0468 177.377 74.4757C170.726 76.6458 164.89 81.0219 162.077 87.2733C160.94 85.7596 159.441 84.539 157.711 83.7173C155.98 82.8956 154.07 82.4977 152.146 82.5579C149.667 82.7177 147.299 83.619 145.364 85.1389C143.43 86.6588 142.023 88.7233 141.336 91.051C141.265 91.3355 141.287 91.6346 141.401 91.9056C141.515 92.1767 141.713 92.4058 141.968 92.5603C142.706 93.173 143.582 93.6074 144.524 93.8285C146.558 94.2482 148.592 94.6323 150.644 94.9806C154.638 95.6593 158.651 96.21 162.682 96.6327C170.872 97.4898 179.112 97.7941 187.345 97.5436C190.084 97.4543 192.731 97.365 195.242 96.1862C197.068 95.3089 198.628 93.9822 199.767 92.3371C201.373 90.0042 202.143 87.2192 201.957 84.4156Z" fill="#E6E6E6"/>
<path d="M383.066 385.342H360.767V46.0021C359.265 44.9214 357.753 43.8498 356.223 42.8049C355.921 42.5995 355.619 42.3941 355.316 42.1887C337.68 30.1632 318.602 20.284 298.506 12.7709L294.182 70.9098L294.182 70.9134H266.359V3.02751C264.545 2.5899 262.731 2.17909 260.899 1.79507V70.9134H155.836V0C154.012 0.330436 152.189 0.669806 150.375 1.03597V70.9134H121.636L121.636 70.9098L117.101 9.93988C97.5447 16.548 78.8549 25.3788 61.4181 36.2497C60.8134 36.6248 60.2088 36.9999 59.6041 37.3929C58.3856 38.1609 57.1672 38.9468 55.967 39.7416V385.342H24.5709C20.554 385.34 16.5979 386.298 13.0493 388.133C9.50077 389.967 6.46814 392.623 4.2173 395.866C1.96646 399.109 0.566146 402.841 0.139148 406.735C-0.28785 410.628 0.271497 414.564 1.76814 418.198C2.2172 419.297 2.75323 420.36 3.37139 421.377C4.1698 422.705 5.09626 423.955 6.13816 425.11C8.43968 427.667 11.2746 429.716 14.4533 431.119C17.6321 432.522 21.0815 433.247 24.5709 433.246H383.066C389.583 433.246 395.832 430.723 400.44 426.231C405.048 421.739 407.637 415.647 407.637 409.294C407.637 402.942 405.048 396.849 400.44 392.357C395.832 387.866 389.583 385.342 383.066 385.342L383.066 385.342ZM288.19 151.628L270.848 385.342H144.97L127.628 151.628H288.19ZM293.788 76.2351L289.51 133.888H266.359V76.2351H293.788ZM260.899 76.2351V133.888H219.093C218.256 132.287 216.981 130.942 215.409 130.003C213.837 129.064 212.029 128.567 210.186 128.566H204.726C202.883 128.567 201.075 129.064 199.503 130.003C197.931 130.942 196.656 132.287 195.819 133.888H155.836V76.2351H260.899ZM150.375 133.888H126.308L122.03 76.2351H150.375V133.888Z" fill="white"/>
<path d="M2.16933 423.964C10.1281 433.157 18.7364 441.796 27.9312 449.819L375.68 450.712C384.875 442.689 393.483 434.05 401.442 424.857L2.16933 423.964Z" fill="#232320"/>
<path d="M177.784 337.506V429.1H243.609V337.506C243.61 336.847 243.395 336.206 242.994 335.675C242.593 335.145 242.029 334.754 241.383 334.559C241.079 334.461 240.76 334.413 240.439 334.416H180.963C180.547 334.415 180.134 334.495 179.748 334.65C179.363 334.805 179.012 335.032 178.717 335.319C178.422 335.606 178.187 335.947 178.027 336.322C177.867 336.697 177.785 337.1 177.784 337.506V337.506ZM203.473 368.978C203.49 367.172 204.238 365.447 205.554 364.176C206.87 362.905 208.648 362.192 210.5 362.192C212.352 362.192 214.129 362.905 215.445 364.176C216.761 365.447 217.509 367.172 217.527 368.978V379.606C217.517 381.416 216.773 383.149 215.456 384.427C214.139 385.704 212.357 386.421 210.5 386.421C208.642 386.421 206.861 385.704 205.544 384.427C204.227 383.149 203.483 381.416 203.473 379.606V368.978Z" fill="#555454"/>
<path d="M177.583 426.17V435.003C177.584 435.46 177.771 435.899 178.102 436.223C178.433 436.547 178.882 436.731 179.351 436.735H242.043C242.512 436.733 242.962 436.549 243.294 436.225C243.625 435.9 243.811 435.461 243.811 435.003V426.17H177.583Z" fill="#232320"/>
<path d="M74.233 199.509V366.745C74.2347 368.877 75.104 370.92 76.6499 372.427C78.1958 373.934 80.292 374.781 82.4782 374.783H336.707C338.894 374.781 340.99 373.934 342.536 372.427C344.082 370.92 344.951 368.877 344.953 366.745V199.509C344.948 197.38 344.077 195.339 342.531 193.834C340.986 192.329 338.892 191.483 336.707 191.48H82.4782C80.2939 191.483 78.1997 192.329 76.6543 193.834C75.1089 195.339 74.2382 197.38 74.233 199.509V199.509Z" fill="#232320"/>
<path d="M80.1971 201.59V364.682C80.1991 365.821 80.664 366.912 81.49 367.718C82.3159 368.523 83.4356 368.976 84.6037 368.978H334.591C335.759 368.976 336.879 368.523 337.705 367.718C338.531 366.912 338.996 365.821 338.998 364.682V201.59C338.998 200.45 338.534 199.356 337.708 198.549C336.881 197.742 335.761 197.288 334.591 197.285H84.6037C83.4342 197.288 82.3134 197.742 81.4873 198.549C80.6612 199.356 80.1972 200.45 80.1971 201.59V201.59Z" fill="#1ABA64"/>
<path d="M131.171 438.816C131.426 439.127 131.749 439.378 132.117 439.55C132.485 439.721 132.889 439.81 133.297 439.808H282.023C282.43 439.807 282.831 439.718 283.198 439.547C283.565 439.377 283.889 439.128 284.145 438.82C284.401 438.512 284.584 438.153 284.679 437.767C284.775 437.382 284.782 436.981 284.698 436.592L282.389 425.902C282.294 425.466 282.088 425.061 281.79 424.722C281.492 424.384 281.113 424.123 280.685 423.964C280.376 423.846 280.047 423.786 279.714 423.786H135.596C135.264 423.786 134.934 423.846 134.625 423.964C134.198 424.123 133.818 424.384 133.52 424.722C133.223 425.061 133.017 425.466 132.921 425.902L130.612 436.592C130.53 436.98 130.538 437.381 130.634 437.766C130.731 438.15 130.914 438.509 131.171 438.816Z" fill="#2F2E41"/>
<path d="M135.596 426.019C135.551 426.018 135.506 426.026 135.464 426.042C135.391 426.066 135.325 426.107 135.273 426.162C135.221 426.217 135.183 426.284 135.163 426.356L132.853 437.052C132.841 437.114 132.843 437.178 132.859 437.239C132.875 437.3 132.905 437.357 132.946 437.405L132.957 437.418C132.997 437.468 133.048 437.509 133.107 437.536C133.166 437.564 133.231 437.577 133.297 437.575H282.023C282.088 437.575 282.152 437.562 282.211 437.535C282.27 437.508 282.321 437.468 282.362 437.419C282.405 437.371 282.437 437.314 282.454 437.252C282.471 437.191 282.472 437.126 282.459 437.064L280.148 426.362C280.131 426.292 280.097 426.227 280.048 426.172C280 426.118 279.939 426.076 279.87 426.05C279.821 426.03 279.768 426.019 279.714 426.019H135.596Z" fill="white"/>
<path d="M92.6413 219.752H326.554C326.797 219.747 327.028 219.649 327.198 219.479C327.368 219.31 327.463 219.082 327.463 218.845C327.463 218.608 327.368 218.381 327.198 218.211C327.028 218.042 326.797 217.944 326.554 217.938H92.6413C92.3982 217.944 92.1668 218.042 91.9968 218.211C91.8267 218.381 91.7315 218.608 91.7315 218.845C91.7315 219.082 91.8267 219.31 91.9968 219.479C92.1668 219.649 92.3982 219.747 92.6413 219.752Z" fill="#232320"/>
<path d="M310.631 213.309C313.642 213.309 316.082 210.876 316.082 207.876C316.082 204.876 313.642 202.443 310.631 202.443C307.62 202.443 305.179 204.876 305.179 207.876C305.179 210.876 307.62 213.309 310.631 213.309Z" fill="#232320"/>
<path d="M291.799 213.309C294.809 213.309 297.25 210.876 297.25 207.876C297.25 204.876 294.809 202.443 291.799 202.443C288.788 202.443 286.347 204.876 286.347 207.876C286.347 210.876 288.788 213.309 291.799 213.309Z" fill="#232320"/>
<path d="M272.966 213.309C275.977 213.309 278.418 210.876 278.418 207.876C278.418 204.876 275.977 202.443 272.966 202.443C269.956 202.443 267.515 204.876 267.515 207.876C267.515 210.876 269.956 213.309 272.966 213.309Z" fill="#232320"/>
<path d="M102.983 204.778C102.982 204.906 103.007 205.034 103.057 205.153C103.107 205.271 103.181 205.38 103.273 205.471C103.366 205.562 103.476 205.635 103.598 205.684C103.719 205.734 103.85 205.76 103.981 205.76H117.357C117.621 205.754 117.873 205.648 118.058 205.463C118.243 205.279 118.346 205.031 118.346 204.773C118.346 204.516 118.243 204.268 118.058 204.084C117.873 203.899 117.621 203.793 117.357 203.787H103.981C103.714 203.79 103.459 203.896 103.272 204.082C103.085 204.267 102.981 204.518 102.983 204.778V204.778Z" fill="#232320"/>
<path d="M102.983 208.484C102.982 208.613 103.007 208.74 103.057 208.859C103.107 208.978 103.181 209.086 103.273 209.177C103.366 209.268 103.476 209.341 103.598 209.391C103.719 209.44 103.85 209.466 103.981 209.467H117.357C117.622 209.461 117.873 209.354 118.059 209.17C118.244 208.986 118.347 208.738 118.347 208.48C118.347 208.222 118.244 207.974 118.059 207.79C117.873 207.605 117.622 207.499 117.357 207.493H103.981C103.714 207.496 103.459 207.602 103.272 207.788C103.085 207.974 102.981 208.224 102.983 208.484V208.484Z" fill="#232320"/>
<path d="M102.983 212.182C102.981 212.442 103.085 212.692 103.272 212.878C103.459 213.064 103.714 213.17 103.981 213.173H117.357C117.621 213.167 117.873 213.06 118.058 212.876C118.243 212.691 118.346 212.444 118.346 212.186C118.346 211.928 118.243 211.681 118.058 211.496C117.873 211.312 117.621 211.205 117.357 211.199H103.981C103.85 211.2 103.719 211.226 103.598 211.275C103.476 211.325 103.366 211.398 103.273 211.489C103.181 211.58 103.107 211.688 103.057 211.807C103.007 211.926 102.982 212.053 102.983 212.182Z" fill="#232320"/>
<path d="M291.701 247.432H127.494C125.337 247.434 123.269 248.271 121.743 249.757C120.218 251.244 119.36 253.26 119.357 255.363V333.272C119.36 335.375 120.218 337.391 121.743 338.878C123.269 340.365 125.337 341.202 127.494 341.204H291.701C293.858 341.202 295.926 340.365 297.451 338.878C298.977 337.391 299.835 335.375 299.837 333.272V255.363C299.835 253.26 298.977 251.244 297.451 249.757C295.926 248.271 293.858 247.434 291.701 247.432ZM298.005 255.363V278.093H240.288V249.218H291.701C293.372 249.22 294.975 249.868 296.156 251.02C297.338 252.172 298.003 253.734 298.005 255.363H298.005ZM180.739 308.756V279.88H238.456V308.756H180.739ZM238.456 310.542V339.418H180.739V310.542H238.456ZM178.907 308.756H121.19V279.88H178.907V308.756ZM180.739 278.093V249.218H238.456V278.093H180.739ZM240.288 279.88H298.005V308.756H240.288V279.88ZM127.494 249.218H178.907V278.093H121.19V255.363C121.192 253.734 121.856 252.172 123.038 251.02C124.22 249.868 125.823 249.22 127.494 249.218V249.218ZM121.19 333.272V310.542H178.907V339.418H127.494C125.822 339.416 124.22 338.768 123.038 337.616C121.856 336.463 121.191 334.901 121.19 333.272V333.272ZM291.701 339.418H240.288V310.542H298.005V333.272C298.003 334.901 297.338 336.464 296.157 337.616C294.975 338.768 293.372 339.416 291.701 339.418H291.701Z" fill="#232320"/>
<path d="M201.252 267.212C199.794 264.862 198.068 262.354 195.364 261.587C192.232 260.698 189.015 262.463 186.286 264.205C178.126 269.413 170.267 275.057 162.746 281.112L162.754 281.203L180.32 280.022C184.551 279.738 188.927 279.414 192.665 277.463C194.084 276.723 195.467 275.734 197.074 275.665C199.072 275.58 200.813 276.939 202.182 278.36C210.277 286.764 212.62 299.615 221.702 306.998C215.975 293.229 209.137 279.926 201.252 267.212V267.212Z" fill="white"/>
<path d="M251.013 338.489C250.118 337.387 249.752 337.129 248.869 336.016C241.679 326.951 234.921 317.579 228.595 307.902C224.298 301.329 220.214 294.63 216.343 287.805C214.5 284.56 212.708 281.29 210.966 277.994C209.614 275.439 208.293 272.868 207.001 270.282C206.632 269.543 206.273 268.801 205.916 268.058C205.075 266.309 204.249 264.551 203.363 262.826C202.446 260.755 201.044 258.923 199.268 257.478C198.423 256.852 197.414 256.473 196.357 256.386C194.869 256.394 193.411 256.801 192.144 257.563C182.551 262.479 173.597 268.498 165.473 275.491C157.337 282.457 150.065 290.326 143.805 298.938C143.613 299.205 143.161 298.95 143.354 298.682C144.115 297.633 144.891 296.595 145.683 295.568C155.523 282.811 167.588 271.84 181.327 263.157C183.639 261.697 185.993 260.305 188.392 258.982C189.601 258.315 190.815 257.656 192.05 257.038C193.233 256.362 194.56 255.961 195.929 255.866C200.635 255.795 203.072 260.991 204.746 264.487C205.272 265.587 205.804 266.684 206.343 267.778C208.379 271.929 210.494 276.043 212.687 280.118C214.04 282.635 215.423 285.136 216.836 287.623C221.232 295.368 225.905 302.955 230.854 310.386C237.41 320.229 243.914 328.924 251.383 338.129C251.588 338.383 251.221 338.747 251.013 338.489Z" fill="white"/>
<path d="M165.008 272.926C164.735 272.629 164.463 272.332 164.188 272.034C162.017 269.695 159.689 267.382 156.708 266.041C155.287 265.381 153.736 265.03 152.162 265.013C150.538 265.057 148.937 265.397 147.442 266.017C146.731 266.294 146.036 266.608 145.352 266.942C144.57 267.326 143.801 267.735 143.037 268.148C141.602 268.922 140.185 269.73 138.787 270.573C136.005 272.248 133.311 274.052 130.703 275.984C129.351 276.986 128.028 278.02 126.732 279.088C125.526 280.079 124.345 281.098 123.189 282.142C122.942 282.365 122.572 282.005 122.82 281.782C123.124 281.506 123.433 281.231 123.741 280.959C124.612 280.191 125.497 279.439 126.396 278.701C128.035 277.352 129.716 276.056 131.44 274.812C134.121 272.877 136.893 271.072 139.759 269.399C141.191 268.564 142.642 267.764 144.113 266.998C144.557 266.767 145.007 266.542 145.461 266.328C146.493 265.82 147.565 265.395 148.666 265.056C150.227 264.564 151.878 264.406 153.507 264.592C155.08 264.815 156.595 265.326 157.973 266.098C160.899 267.693 163.169 270.158 165.377 272.564C165.6 272.809 165.233 273.17 165.008 272.926Z" fill="white"/>
<path d="M224.965 297.172L231.977 294.672L235.459 293.431C236.583 292.989 237.731 292.604 238.896 292.277C239.914 291.993 240.996 292.007 242.007 292.315C242.908 292.641 243.733 293.139 244.433 293.782C245.148 294.424 245.813 295.116 246.424 295.854C247.181 296.742 247.928 297.639 248.678 298.533C251.774 302.224 254.85 305.931 257.906 309.654C260.961 313.377 263.996 317.115 267.01 320.87C270.032 324.634 273.033 328.413 276.014 332.208C276.379 332.673 276.744 333.138 277.108 333.604C277.309 333.861 277.763 333.607 277.559 333.347C274.557 329.513 271.534 325.696 268.49 321.894C265.438 318.083 262.365 314.288 259.271 310.509C256.178 306.73 253.063 302.968 249.927 299.222C249.146 298.289 248.364 297.357 247.58 296.426C246.919 295.64 246.265 294.846 245.54 294.115C244.923 293.39 244.165 292.791 243.309 292.352C242.454 291.912 241.518 291.642 240.555 291.555C239.389 291.595 238.241 291.841 237.165 292.282C235.993 292.695 234.823 293.117 233.652 293.534L226.592 296.052L224.826 296.681C224.513 296.793 224.648 297.285 224.965 297.172V297.172Z" fill="white"/>
<path d="M155.786 268.985C153.984 268.119 151.978 267.737 149.974 267.877C147.971 268.016 146.042 268.673 144.384 269.78C150.63 270.83 156.808 272.236 162.885 273.989C160.361 272.547 158.387 270.288 155.786 268.985Z" fill="white"/>
<path d="M144.349 269.773L143.663 270.317C143.895 270.127 144.137 269.948 144.384 269.78L144.349 269.773Z" fill="white"/>
<path d="M244.169 297.197C243.556 296.315 242.7 295.619 241.7 295.188L240.736 295.225C248.074 307.864 257.984 318.908 269.858 327.679L244.169 297.197Z" fill="white"/>
<path d="M239.66 283.359C242.725 283.359 245.211 280.936 245.211 277.948C245.211 274.959 242.725 272.537 239.66 272.537C236.594 272.537 234.109 274.959 234.109 277.948C234.109 280.936 236.594 283.359 239.66 283.359Z" fill="white"/>
<path d="M320.211 338.079C321.304 338.077 322.352 337.653 323.125 336.9C323.898 336.146 324.332 335.125 324.334 334.06V251.004C324.334 249.938 323.9 248.916 323.127 248.162C322.353 247.409 321.305 246.985 320.211 246.985C319.118 246.985 318.069 247.409 317.296 248.162C316.523 248.916 316.089 249.938 316.089 251.004V334.06C316.09 335.125 316.525 336.146 317.298 336.9C318.071 337.653 319.119 338.077 320.211 338.079V338.079Z" fill="#232320"/>
<path d="M320.211 338.079C321.304 338.077 322.352 337.653 323.125 336.9C323.898 336.146 324.332 335.125 324.334 334.06V316.448C323.859 315.817 323.238 315.304 322.522 314.95C321.806 314.596 321.014 314.412 320.211 314.412C319.409 314.412 318.617 314.596 317.901 314.95C317.184 315.304 316.564 315.817 316.089 316.448V334.06C316.09 335.125 316.525 336.146 317.298 336.9C318.071 337.653 319.119 338.077 320.211 338.079V338.079Z" fill="#2F2E41"/>
<path d="M320.211 321.11C321.387 321.108 322.514 320.652 323.345 319.842C324.176 319.032 324.644 317.934 324.645 316.788V297.847C324.135 297.169 323.467 296.617 322.697 296.236C321.926 295.856 321.075 295.657 320.211 295.657C319.348 295.657 318.497 295.856 317.726 296.236C316.956 296.617 316.288 297.169 315.778 297.847V316.788C315.779 317.934 316.247 319.032 317.078 319.842C317.909 320.652 319.036 321.108 320.211 321.11V321.11Z" fill="#1ABA64"/>
<path d="M320.211 317.666C321.069 317.665 321.891 317.332 322.497 316.741C323.103 316.15 323.444 315.349 323.445 314.514V300.699C323.073 300.204 322.586 299.801 322.024 299.524C321.462 299.246 320.841 299.102 320.211 299.102C319.582 299.102 318.961 299.246 318.399 299.524C317.837 299.801 317.35 300.204 316.978 300.699V314.514C316.979 315.349 317.32 316.15 317.926 316.741C318.532 317.332 319.354 317.665 320.211 317.666V317.666Z" fill="#232320"/>
<path d="M193.03 431.385C192.306 430.753 191.869 429.867 191.814 428.921C191.76 427.976 192.093 427.048 192.739 426.341L228.758 387.053C229.079 386.703 229.467 386.419 229.901 386.215C230.334 386.012 230.805 385.893 231.285 385.867C231.766 385.841 232.247 385.907 232.701 386.062C233.155 386.217 233.574 386.457 233.932 386.77C234.291 387.083 234.583 387.461 234.792 387.884C235.001 388.306 235.122 388.765 235.149 389.233C235.176 389.702 235.108 390.171 234.949 390.614C234.79 391.056 234.544 391.464 234.223 391.814L198.204 431.102C197.556 431.807 196.647 432.233 195.677 432.286C194.707 432.339 193.755 432.015 193.03 431.385Z" fill="#232320"/>
<path d="M491.83 496.071C491.83 502.581 490.254 507.564 490.447 511.548C479.641 516.145 468.531 520.03 457.191 523.175C455.908 523.533 454.626 523.872 453.334 524.211C446.344 503.349 439.344 484.246 436.587 482.219C430.275 477.602 427.114 496.705 427.114 492.088C427.114 487.47 430.275 487.47 422.387 481.317C414.49 475.164 419.226 447.47 419.226 447.47L408.177 419.776L420.536 375.604L436.587 318.225H452.372C452.372 318.225 452.839 318.555 453.618 319.171C457.567 322.315 469.476 332.817 468.157 344.383C467.763 347.83 468.643 357.85 470.173 371.193C474.827 411.479 485.518 455.275 485.518 466.832C485.518 482.219 491.83 486.836 491.83 496.071Z" fill="#E6E6E6"/>
<path d="M478.594 371.042C478.576 370.997 478.566 370.961 478.548 370.925C478.194 369.996 477.781 369.09 477.311 368.211C474.645 363.325 477.467 355.824 474.462 347.536C469.607 334.104 463.688 326.183 455.013 319.083C454.756 318.868 454.499 318.663 454.234 318.449L454.225 318.44C448.435 313.805 441.454 309.473 432.787 304.079C430.982 302.954 429.095 301.784 427.134 300.552C424.606 298.971 424.743 293.702 424.89 288.129C425.055 281.94 425.229 275.528 422.114 271.527L421.912 271.268L421.592 271.187C410.912 269.128 400.019 268.31 389.142 268.749H389.133C384.514 268.917 379.928 269.572 375.455 270.705C375.125 270.794 374.795 270.884 374.474 270.991C374.227 271.053 373.98 271.134 373.732 271.214L373.531 271.286L373.375 271.429C370.361 274.367 369.665 279.636 369.335 285.128V285.137C369.271 286.137 369.216 287.138 369.17 288.138C368.913 293.478 368.675 298.524 366.66 300.712C362.164 305.677 356.73 309.752 350.655 312.715C341.191 317.27 333.706 317.127 333.596 317.127L332.726 317.1L332.644 317.94C326.359 329.612 326.597 359.726 326.405 391.975C326.395 393.77 326.383 395.574 326.368 397.387C326.258 412.409 325.965 427.689 324.81 441.612C324.307 447.596 323.656 453.32 322.786 458.67C318.553 484.721 299.378 463.09 290.208 480.425C290.509 482.129 291.017 483.793 291.719 485.381C292.773 485.989 293.854 486.578 294.926 487.168C299.681 489.748 304.524 492.157 309.456 494.392C309.731 494.517 310.006 494.643 310.28 494.759C319.327 498.839 328.651 502.306 338.186 505.136C340.046 505.69 341.906 506.217 343.784 506.717C360.397 511.187 377.503 513.685 394.73 514.156C394.8 514.148 394.871 514.145 394.941 514.147C415.315 513.598 435.556 510.754 455.26 505.672C455.535 505.601 455.809 505.529 456.084 505.458C457.376 505.118 458.659 504.779 459.941 504.422C471.281 501.276 482.392 497.392 493.197 492.794C493.208 493.186 493.248 493.577 493.316 493.964C493.326 494.09 493.344 494.215 493.371 494.339C493.39 494.196 493.408 494.053 493.417 493.91C493.472 493.49 493.518 493.062 493.564 492.633C499.171 439.335 487.526 394.083 478.594 371.042Z" fill="#2E4136"/>
<path d="M352.685 240.415C358.277 250.382 367.184 258.196 377.939 262.569C388.695 266.942 400.658 267.615 411.858 264.475C423.058 261.336 432.827 254.571 439.557 245.296C446.286 236.022 449.575 224.789 448.881 213.449C448.187 202.109 443.552 191.337 435.739 182.908C427.926 174.478 417.402 168.894 405.898 167.074C394.395 165.255 382.599 167.309 372.453 172.897C362.307 178.486 354.415 187.276 350.079 197.821C349.844 198.393 349.633 198.965 349.421 199.561C346.97 206.208 345.993 213.286 346.556 220.329C347.118 227.371 349.207 234.217 352.685 240.415V240.415Z" fill="#A0616A"/>
<path d="M345.313 199.561C347.52 193.541 346.557 196.677 348.788 190.68C347.332 195.99 349.633 198.966 349.422 199.561H410.49V164.955C392.599 158.043 375.107 152.161 364.542 164.955C355.127 164.955 346.098 168.601 339.44 175.091C332.783 181.581 329.042 190.383 329.042 199.561H345.313Z" fill="#100D0D"/>
<path d="M366.96 295.756C367.007 295.116 367.077 294.452 367.171 293.811C367.829 289.096 369.472 284.564 371.139 280.078C372.9 275.249 374.685 270.397 376.469 265.568C374.171 274.334 374.872 283.592 378.465 291.934C388.772 284.107 382.268 266.209 395.745 266.209C428.145 266.209 461.485 240.598 461.485 208.99C461.485 177.405 447.586 153.786 415.185 153.786C382.761 153.786 356.465 168.25 355.831 199.835C395.745 208.99 359.423 292.552 366.96 295.756Z" fill="#100D0D"/>
<path d="M457.437 204.149C478.184 204.149 495.002 187.754 495.002 167.529C495.002 147.305 478.184 130.909 457.437 130.909C436.689 130.909 419.871 147.305 419.871 167.529C419.871 187.754 436.689 204.149 457.437 204.149Z" fill="#100D0D"/>
<path d="M516 377.543C515.872 379.428 515.759 381.434 515.661 383.562C513.719 423.652 515.395 477.621 502.304 506.904C499.372 508.467 496.41 509.962 493.417 511.388C493.298 511.441 493.188 511.495 493.087 511.548C492.281 511.932 491.475 512.308 490.669 512.665C490.639 512.689 490.605 512.708 490.568 512.718C481.715 516.796 472.591 520.29 463.258 523.176C462.113 523.533 460.958 523.873 459.804 524.212C459.557 524.284 459.309 524.355 459.062 524.426C441.478 529.495 423.3 532.344 404.973 532.902C404.02 532.929 403.086 532.946 402.179 532.964C401.858 532.973 401.547 532.982 401.235 532.982C400.209 532.991 399.192 533 398.166 533C396.096 533 394.034 532.97 391.982 532.911C374.755 532.44 357.648 529.942 341.035 525.471C339.157 524.971 337.298 524.444 335.438 523.891C325.902 521.061 316.578 517.593 307.532 513.513C307.257 513.397 306.983 513.272 306.708 513.147C301.779 510.914 296.935 508.506 292.178 505.922C291.106 505.333 290.025 504.743 288.971 504.136C288.268 502.548 287.761 500.884 287.46 499.179C285.38 489.436 283.712 496.009 282.522 475.736C281.431 457.152 280.735 438.513 280.479 427.859C280.396 425.019 280.369 422.742 280.359 421.188C281.331 414.418 296.942 406.738 319.708 399.441C321.861 398.754 324.087 398.066 326.368 397.387C332.524 395.539 339.102 393.726 345.973 391.975C363.472 387.51 382.903 383.411 402.188 380.026C411.707 378.365 421.189 376.873 430.396 375.605C446.547 373.373 461.829 371.828 474.902 371.193C476.157 371.131 477.385 371.077 478.594 371.042C479.895 370.988 481.168 370.952 482.414 370.926C501.25 370.524 514.113 372.435 516 377.543Z" fill="#A06F1F"/>
<path opacity="0.2" d="M516 377.543C515.872 379.428 515.759 381.434 515.661 383.563C501.388 368.577 347.622 435.521 282.521 475.736C281.431 457.152 280.735 438.513 280.478 427.859C280.396 425.019 280.368 422.742 280.359 421.188C281.33 414.418 296.941 406.738 319.708 399.441C321.861 398.754 324.087 398.066 326.368 397.387C332.524 395.539 339.102 393.726 345.973 391.975C363.472 387.51 382.903 383.411 402.188 380.026C411.707 378.365 421.189 376.873 430.396 375.605C446.547 373.373 461.829 371.828 474.902 371.193C476.157 371.131 477.385 371.077 478.594 371.042C479.895 370.988 481.168 370.952 482.414 370.926C501.25 370.524 514.113 372.435 516 377.543Z" fill="#232320"/>
<path d="M203.292 423.994C204.734 425.766 206.557 427.209 208.633 428.22C210.708 429.231 212.986 429.786 215.306 429.846C217.625 429.906 219.93 429.47 222.058 428.568C224.185 427.665 226.084 426.319 227.621 424.624L279.793 445.512L274.163 417.473L225.482 401.937C222.39 399.609 218.53 398.468 214.633 398.73C210.735 398.992 207.072 400.638 204.337 403.357C201.602 406.076 199.985 409.679 199.792 413.482C199.6 417.286 200.845 421.026 203.292 423.994V423.994Z" fill="#A0616A"/>
<path d="M376.841 307.234L376.555 307.204L346.131 309.358C342.268 309.631 338.51 310.702 335.104 312.499C331.698 314.297 328.724 316.78 326.378 319.784C325.288 321.176 324.344 322.671 323.561 324.247L323.553 324.252C320.931 329.483 320.14 335.409 321.303 341.12L335.626 411.407L301.163 408.355L288.582 410.451L273.736 404.612L243.273 405.118L242.567 407.393L236.177 428.044L235.675 429.667L282.193 458.242L295.679 454.243L302.032 459L302.337 459.008L314.936 459.251L368.666 460.278L383.353 434.914L385.647 430.937C402.705 393.688 406.913 367.684 405.578 349.77C404.878 340.304 402.634 333.109 399.916 327.687C391.512 310.931 377.433 307.375 376.841 307.234Z" fill="#2E4136"/>
<path d="M462.188 200.041C455.064 198.48 448.459 195.191 442.986 190.479C437.513 185.767 433.349 179.784 430.88 173.086C428.676 166.854 427.844 160.011 424.145 154.465C429.781 146.92 434.3 138.64 437.57 129.869C438.836 126.473 441.801 120.308 436.775 118.44C432.771 116.952 428.223 120.544 425.849 123.378C424.046 125.526 422.753 128.036 422.063 130.729C421.244 127.206 420.426 123.683 419.607 120.159C419.503 119.821 419.269 119.535 418.954 119.361C418.639 119.187 418.268 119.138 417.917 119.224C411.209 120.338 406.344 126.393 405.499 132.77C405.038 136.053 405.804 139.389 407.658 142.167C409.812 145.362 412.968 147.653 415.971 150.035C419.164 152.567 421.871 155.265 423.588 158.968C425.372 162.817 426.175 167.029 427.359 171.071C429.606 178.834 433.959 185.862 439.96 191.416C445.961 196.969 453.388 200.841 461.457 202.625C463.181 202.992 463.918 200.41 462.188 200.041ZM424.308 135.994C424.092 132.628 425.005 129.286 426.908 126.47C427.86 125.042 429.053 123.782 430.438 122.742C431.75 121.765 433.686 120.471 435.422 120.83C437.673 121.295 436.767 123.745 436.289 125.223C435.658 127.172 434.964 129.101 434.208 131.009C432.734 134.714 431.024 138.325 429.087 141.821C428.081 143.641 427.006 145.423 425.884 147.175C425.11 143.844 424.336 140.514 423.562 137.183C423.806 137.096 424.012 136.931 424.148 136.715C424.283 136.499 424.34 136.245 424.308 135.994V135.994ZM408.258 136.527C407.808 133.484 408.46 130.383 410.101 127.757C411.743 125.132 414.271 123.145 417.251 122.139C419.433 131.529 421.614 140.918 423.796 150.307C423.345 150.955 422.881 151.592 422.415 152.229C422.294 152.092 422.182 151.951 422.055 151.817C417.48 146.962 409.501 143.653 408.258 136.527V136.527Z" fill="#2E4136"/>
</g>
<defs>
<clipPath id="clip0_9_16">
<rect width="516" height="533" fill="white"/>
</clipPath>
</defs>
</svg>
