<svg width="501" height="337" viewBox="0 0 501 337" fill="none"  xmlns="http://www.w3.org/2000/svg">
<g clip-path="url(#clip0_38_2)">
<rect width="501" height="337" fill="sandybrown"/>
<path d="M468.305 297.762H341.707C337.101 297.757 332.685 295.836 329.428 292.42C326.171 289.005 324.339 284.375 324.334 279.545V70.1384C324.339 65.3085 326.171 60.678 329.428 57.2627C332.685 53.8475 337.101 51.9264 341.707 51.921H468.305C472.911 51.9264 477.327 53.8475 480.584 57.2627C483.841 60.678 485.673 65.3085 485.678 70.1384V279.545C485.673 284.375 483.841 289.005 480.584 292.42C477.327 295.836 472.911 297.757 468.305 297.762V297.762Z" fill="#232320"/>
<path d="M470.405 62.7915H341.468C340.026 62.7934 338.644 63.3948 337.624 64.4639C336.605 65.533 336.031 66.9824 336.029 68.4943V280.631C336.032 282.143 336.605 283.592 337.625 284.661C338.644 285.73 340.026 286.332 341.468 286.334H470.405C471.846 286.332 473.229 285.731 474.248 284.661C475.268 283.592 475.841 282.143 475.843 280.631V68.4943C475.841 66.9824 475.268 65.533 474.248 64.4639C473.229 63.3948 471.846 62.7934 470.405 62.7915V62.7915Z" fill="#232320"/>
<path d="M344.801 51.921C344.802 51.5515 344.942 51.1973 345.191 50.936C345.44 50.6747 345.778 50.5277 346.13 50.5273H355.168C355.52 50.5273 355.858 50.6741 356.107 50.9355C356.357 51.1969 356.497 51.5513 356.497 51.921C356.497 52.2906 356.357 52.6451 356.107 52.9064C355.858 53.1678 355.52 53.3146 355.168 53.3146H346.13C345.778 53.3142 345.44 53.1672 345.191 52.9059C344.942 52.6447 344.802 52.2904 344.801 51.921Z" fill="#232320"/>
<path d="M359.687 51.921C359.687 51.5515 359.827 51.1973 360.076 50.936C360.325 50.6747 360.663 50.5277 361.016 50.5273H370.053C370.405 50.5273 370.743 50.6741 370.993 50.9355C371.242 51.1969 371.382 51.5513 371.382 51.921C371.382 52.2906 371.242 52.6451 370.993 52.9064C370.743 53.1678 370.405 53.3146 370.053 53.3146H361.016C360.663 53.3142 360.325 53.1672 360.076 52.906C359.827 52.6447 359.687 52.2905 359.687 51.921Z" fill="#232320"/>
<path d="M448.997 51.921C448.997 51.5515 449.138 51.1973 449.387 50.936C449.636 50.6747 449.974 50.5277 450.326 50.5273H459.363C459.716 50.5273 460.054 50.6741 460.303 50.9355C460.552 51.1969 460.693 51.5513 460.693 51.921C460.693 52.2906 460.552 52.6451 460.303 52.9064C460.054 53.1678 459.716 53.3146 459.363 53.3146H450.326C449.974 53.3142 449.636 53.1672 449.387 52.906C449.138 52.6447 448.997 52.2905 448.997 51.921V51.921Z" fill="#232320"/>
<path d="M423.804 281.963C423.804 283.429 423.777 284.89 423.713 286.334H341.468C340.026 286.332 338.644 285.73 337.625 284.661C336.605 283.592 336.032 282.143 336.029 280.631V173.855C360.522 178.004 382.805 191.162 398.888 210.971C414.972 230.78 423.804 255.947 423.804 281.963Z" fill="#F2F2F2"/>
<path d="M421.011 117.307H390.337C388.942 117.307 387.81 118.493 387.81 119.957V123.264C387.81 124.728 388.942 125.914 390.337 125.914H421.011C422.406 125.914 423.538 124.728 423.538 123.264V119.957C423.538 118.493 422.406 117.307 421.011 117.307Z" fill="#1ABA64"/>
<path d="M440.506 134.522H370.843C369.447 134.522 368.315 135.708 368.315 137.172V140.479C368.315 141.943 369.447 143.129 370.843 143.129H440.506C441.902 143.129 443.033 141.943 443.033 140.479V137.172C443.033 135.708 441.902 134.522 440.506 134.522Z" fill="#232320"/>
<path d="M440.506 151.737H370.843C369.447 151.737 368.315 152.923 368.315 154.387V157.694C368.315 159.158 369.447 160.344 370.843 160.344H440.506C441.902 160.344 443.033 159.158 443.033 157.694V154.387C443.033 152.923 441.902 151.737 440.506 151.737Z" fill="#232320"/>
<path d="M428.577 271.836C428.178 271.855 427.782 271.745 427.444 271.521C427.106 271.297 426.843 270.969 426.688 270.582C426.534 270.195 426.497 269.768 426.582 269.358C426.667 268.949 426.87 268.576 427.164 268.292L427.297 267.735C427.28 267.69 427.262 267.645 427.244 267.601C426.842 266.604 426.168 265.755 425.306 265.158C424.445 264.562 423.434 264.246 422.402 264.251C421.37 264.255 420.362 264.578 419.505 265.181C418.648 265.784 417.98 266.639 417.584 267.639C416.005 271.629 413.993 275.626 413.498 279.845C413.28 281.71 413.372 283.6 413.77 285.432C410.059 276.944 408.132 267.718 408.12 258.381C408.119 256.037 408.243 253.696 408.492 251.367C408.697 249.458 408.982 247.563 409.346 245.681C411.335 235.471 415.605 225.901 421.806 217.757C424.807 216.04 427.235 213.399 428.761 210.191C429.313 209.038 429.704 207.807 429.921 206.536C429.582 206.582 429.238 206.612 428.899 206.635C428.794 206.641 428.683 206.646 428.577 206.652L428.538 206.654C428.166 206.672 427.797 206.576 427.475 206.379C427.154 206.181 426.893 205.891 426.726 205.542C426.558 205.193 426.49 204.801 426.53 204.413C426.57 204.025 426.716 203.657 426.951 203.353C427.097 203.165 427.243 202.976 427.39 202.788C427.612 202.497 427.839 202.212 428.061 201.921C428.087 201.893 428.111 201.864 428.133 201.833C428.389 201.502 428.644 201.176 428.899 200.844C428.433 200.085 427.807 199.45 427.068 198.987C424.509 197.416 420.979 198.504 419.131 200.931C417.277 203.358 416.928 206.763 417.572 209.795C418.205 212.375 419.252 214.823 420.669 217.035C420.53 217.221 420.385 217.402 420.247 217.588C417.71 221.008 415.5 224.681 413.646 228.553C414.097 224.215 413.559 219.827 412.077 215.749C410.575 211.949 407.759 208.748 405.28 205.463C402.301 201.517 396.194 203.239 395.669 208.241C395.664 208.29 395.659 208.338 395.654 208.387C396.023 208.604 396.383 208.836 396.736 209.08C397.179 209.391 397.522 209.834 397.721 210.353C397.919 210.872 397.964 211.441 397.849 211.987C397.734 212.532 397.464 213.029 397.075 213.411C396.686 213.793 396.196 214.043 395.669 214.128L395.615 214.137C395.747 215.529 395.978 216.908 396.309 218.263C397.267 222.046 398.96 225.581 401.282 228.645C403.604 231.71 406.504 234.238 409.801 236.072C410.018 236.189 410.229 236.305 410.445 236.416C408.583 241.949 407.415 247.712 406.971 253.561C406.719 257.012 406.734 260.479 407.015 263.927L406.999 263.805C406.288 259.97 404.338 256.511 401.476 254.01C397.226 250.349 391.222 249.001 386.638 246.058C386.15 245.73 385.584 245.555 385.005 245.554C384.426 245.552 383.858 245.724 383.37 246.05C382.881 246.375 382.491 246.841 382.246 247.391C382.001 247.941 381.912 248.553 381.988 249.155C381.994 249.198 382 249.241 382.006 249.284C382.69 249.576 383.355 249.912 383.999 250.291C384.367 250.509 384.728 250.74 385.081 250.984C385.524 251.295 385.867 251.738 386.066 252.257C386.264 252.776 386.309 253.345 386.193 253.891C386.078 254.436 385.808 254.933 385.42 255.315C385.031 255.697 384.541 255.947 384.014 256.032L383.96 256.041C383.921 256.047 383.888 256.052 383.849 256.058C385.017 258.982 386.656 261.673 388.694 264.014C391.213 266.848 394.256 269.112 397.638 270.668C401.021 272.224 404.67 273.04 408.364 273.064H408.369C409.372 277.633 410.825 282.08 412.704 286.334H428.189C428.244 286.154 428.294 285.967 428.344 285.787C426.911 285.881 425.472 285.791 424.06 285.519C425.209 284.041 426.357 282.551 427.506 281.073C427.532 281.045 427.556 281.016 427.578 280.985C428.161 280.229 428.749 279.478 429.332 278.721L429.333 278.72C429.364 276.401 429.11 274.088 428.577 271.836L428.577 271.836ZM410.845 235.258L410.853 235.246L410.845 235.269V235.258ZM407.415 267.681L407.282 267.367C407.287 267.14 407.287 266.913 407.282 266.68C407.282 266.616 407.271 266.552 407.271 266.488C407.321 266.889 407.365 267.291 407.42 267.692L407.415 267.681Z" fill="#0D0B0B"/>
<path d="M463.96 81.5202H347.913C347.662 81.5144 347.423 81.4058 347.248 81.2175C347.072 81.0293 346.974 80.7765 346.974 80.5131C346.974 80.2498 347.072 79.9969 347.248 79.8087C347.423 79.6205 347.662 79.5118 347.913 79.506H463.96C464.211 79.5118 464.45 79.6205 464.626 79.8087C464.801 79.9969 464.9 80.2498 464.9 80.5131C464.9 80.7765 464.801 81.0293 464.626 81.2175C464.45 81.4058 464.211 81.5144 463.96 81.5202V81.5202Z" fill="#CACACA"/>
<path d="M354.104 76.5938C355.663 76.5938 356.927 75.239 356.927 73.5678C356.927 71.8966 355.663 70.5418 354.104 70.5418C352.546 70.5418 351.282 71.8966 351.282 73.5678C351.282 75.239 352.546 76.5938 354.104 76.5938Z" fill="#3A674F"/>
<path d="M363.856 76.5938C365.415 76.5938 366.679 75.239 366.679 73.5678C366.679 71.8966 365.415 70.5418 363.856 70.5418C362.297 70.5418 361.033 71.8966 361.033 73.5678C361.033 75.239 362.297 76.5938 363.856 76.5938Z" fill="#3A674F"/>
<path d="M373.607 76.5938C375.166 76.5938 376.43 75.239 376.43 73.5678C376.43 71.8966 375.166 70.5418 373.607 70.5418C372.048 70.5418 370.784 71.8966 370.784 73.5678C370.784 75.239 372.048 76.5938 373.607 76.5938Z" fill="#3A674F"/>
<path d="M459.424 71.7109H453.107C452.982 71.7135 452.863 71.7675 452.775 71.8612C452.687 71.955 452.638 72.0811 452.638 72.2124C452.638 72.3438 452.687 72.4699 452.775 72.5637C452.863 72.6574 452.982 72.7114 453.107 72.714H459.424C459.549 72.7114 459.669 72.6574 459.756 72.5637C459.844 72.4699 459.893 72.3438 459.893 72.2124C459.893 72.0811 459.844 71.955 459.756 71.8612C459.669 71.7675 459.549 71.7135 459.424 71.7109V71.7109Z" fill="#3A674F"/>
<path d="M459.424 73.5936H453.107C452.982 73.5962 452.863 73.6502 452.775 73.744C452.687 73.8377 452.638 73.9638 452.638 74.0952C452.638 74.2265 452.687 74.3526 452.775 74.4464C452.863 74.5402 452.982 74.5941 453.107 74.5967H459.424C459.549 74.5941 459.669 74.5402 459.756 74.4464C459.844 74.3526 459.893 74.2265 459.893 74.0952C459.893 73.9638 459.844 73.8377 459.756 73.744C459.669 73.6502 459.549 73.5962 459.424 73.5936V73.5936Z" fill="#3A674F"/>
<path d="M459.424 75.4739H453.107C452.982 75.4765 452.863 75.5304 452.775 75.6242C452.687 75.718 452.638 75.8441 452.638 75.9754C452.638 76.1068 452.687 76.2329 452.775 76.3267C452.863 76.4204 452.982 76.4744 453.107 76.477H459.424C459.549 76.4744 459.669 76.4204 459.756 76.3267C459.844 76.2329 459.893 76.1068 459.893 75.9754C459.893 75.8441 459.844 75.718 459.756 75.6242C459.669 75.5304 459.549 75.4765 459.424 75.4739Z" fill="#3A674F"/>
<path d="M271.138 173.934H203.857C202.906 173.936 201.993 174.334 201.321 175.04C200.649 175.747 200.272 176.705 200.273 177.703V289.155H274.732V177.703C274.732 177.208 274.639 176.718 274.459 176.26C274.278 175.803 274.014 175.388 273.68 175.038C273.346 174.688 272.95 174.41 272.514 174.221C272.078 174.031 271.61 173.934 271.138 173.934ZM237.724 237.26C235.62 237.25 233.605 236.369 232.117 234.809C230.629 233.249 229.789 231.136 229.779 228.929V216.074C229.781 213.866 230.619 211.749 232.109 210.188C233.599 208.627 235.618 207.75 237.724 207.75C239.83 207.75 241.85 208.627 243.34 210.188C244.829 211.749 245.667 213.866 245.669 216.074V228.929C245.659 231.136 244.819 233.249 243.331 234.809C241.843 236.369 239.828 237.25 237.724 237.26V237.26Z" fill="#232320"/>
<path d="M200.042 285.59V296.343C200.043 296.901 200.255 297.435 200.63 297.829C201.006 298.223 201.515 298.444 202.047 298.446H272.958C273.489 298.443 273.997 298.22 274.373 297.827C274.748 297.433 274.96 296.9 274.963 296.343V285.59L200.042 285.59Z" fill="#0D0B0B"/>
<path d="M382.55 0H94.9497C92.4787 0.00412214 90.1101 1.03525 88.3629 2.86743C86.6157 4.6996 85.6324 7.18339 85.6284 9.77448V213.286C85.6308 215.877 86.6136 218.362 88.3612 220.195C90.1087 222.027 92.4782 223.058 94.9497 223.06H382.55C385.021 223.058 387.391 222.027 389.138 220.195C390.886 218.362 391.869 215.877 391.871 213.286V9.77448C391.867 7.18339 390.884 4.6996 389.137 2.86743C387.389 1.03525 385.021 0.00412053 382.55 0Z" fill="#232320"/>
<path d="M380.149 7.05995H97.3527C96.0296 7.06297 94.7618 7.61617 93.8273 8.59819C92.8927 9.58022 92.3678 10.9109 92.3677 12.2982V210.765C92.37 212.151 92.8959 213.479 93.8302 214.459C94.7646 215.439 96.0313 215.99 97.3527 215.993H380.149C381.471 215.99 382.737 215.439 383.672 214.459C384.606 213.479 385.132 212.151 385.134 210.765V12.2982C385.134 10.9109 384.609 9.58022 383.675 8.59819C382.74 7.61617 381.472 7.06297 380.149 7.05995Z" fill="#232320"/>
<path d="M385.134 12.2982V210.765C385.132 212.151 384.606 213.479 383.671 214.459C382.737 215.439 381.47 215.99 380.149 215.993H280.429C269.397 205.264 260.347 192.495 253.732 178.325C253.296 177.412 252.882 176.488 252.488 175.554C246.461 161.838 242.811 147.107 241.71 132.05C241.637 131.126 241.575 130.202 241.533 129.268C241.399 126.877 241.337 124.453 241.337 122.019C241.317 105.829 244.232 89.7819 249.928 74.7334C250.27 73.7988 250.633 72.875 251.006 71.9513C262.469 43.7091 283.182 20.694 309.406 7.05995H380.149C381.472 7.06297 382.74 7.61617 383.674 8.59819C384.609 9.58022 385.134 10.9109 385.134 12.2982Z" fill="#1ABA64"/>
<path d="M365.933 34.4043H101.322C101.046 34.3981 100.784 34.2792 100.592 34.0729C100.399 33.8666 100.292 33.5895 100.292 33.3008C100.292 33.0122 100.399 32.735 100.592 32.5287C100.784 32.3225 101.046 32.2035 101.322 32.1974H365.933C366.208 32.2035 366.47 32.3225 366.663 32.5287C366.856 32.735 366.963 33.0122 366.963 33.3008C366.963 33.5895 366.856 33.8666 366.663 34.0729C366.47 34.2792 366.208 34.3981 365.933 34.4043V34.4043Z" fill="#CACACA"/>
<path d="M119.334 26.5633C122.74 26.5633 125.501 23.6035 125.501 19.9524C125.501 16.3013 122.74 13.3416 119.334 13.3416C115.928 13.3416 113.167 16.3013 113.167 19.9524C113.167 23.6035 115.928 26.5633 119.334 26.5633Z" fill="#3A674F"/>
<path d="M140.638 26.5633C144.044 26.5633 146.805 23.6035 146.805 19.9524C146.805 16.3013 144.044 13.3416 140.638 13.3416C137.232 13.3416 134.471 16.3013 134.471 19.9524C134.471 23.6035 137.232 26.5633 140.638 26.5633Z" fill="#3A674F"/>
<path d="M161.942 26.5633C165.348 26.5633 168.109 23.6035 168.109 19.9524C168.109 16.3013 165.348 13.3416 161.942 13.3416C158.536 13.3416 155.775 16.3013 155.775 19.9524C155.775 23.6035 158.536 26.5633 161.942 26.5633Z" fill="#3A674F"/>
<path d="M353.107 14.9801H337.974C337.674 14.9864 337.388 15.1157 337.178 15.3403C336.968 15.565 336.85 15.8671 336.85 16.1817C336.85 16.4963 336.968 16.7984 337.178 17.0231C337.388 17.2477 337.674 17.377 337.974 17.3833H353.107C353.407 17.377 353.692 17.2477 353.902 17.0231C354.112 16.7984 354.23 16.4963 354.23 16.1817C354.23 15.8671 354.112 15.565 353.902 15.3403C353.692 15.1157 353.407 14.9864 353.107 14.9801V14.9801Z" fill="#3A674F"/>
<path d="M353.107 19.4905H337.974C337.674 19.4967 337.388 19.626 337.178 19.8507C336.968 20.0753 336.85 20.3774 336.85 20.692C336.85 21.0067 336.968 21.3087 337.178 21.5334C337.388 21.7581 337.674 21.8874 337.974 21.8936H353.107C353.407 21.8874 353.692 21.7581 353.902 21.5334C354.112 21.3087 354.23 21.0067 354.23 20.692C354.23 20.3774 354.112 20.0753 353.902 19.8507C353.692 19.626 353.407 19.4967 353.107 19.4905V19.4905Z" fill="#3A674F"/>
<path d="M353.107 23.9949H337.974C337.674 24.0011 337.388 24.1304 337.178 24.3551C336.968 24.5797 336.85 24.8818 336.85 25.1964C336.85 25.511 336.968 25.8131 337.178 26.0378C337.388 26.2624 337.674 26.3918 337.974 26.398H353.107C353.407 26.3918 353.692 26.2624 353.902 26.0378C354.112 25.8131 354.23 25.511 354.23 25.1964C354.23 24.8818 354.112 24.5797 353.902 24.3551C353.692 24.1304 353.407 24.0011 353.107 23.9949V23.9949Z" fill="#3A674F"/>
<path d="M182.342 98.8695H145.339C143.943 98.8695 142.812 100.056 142.812 101.52V105.65C142.812 107.114 143.943 108.301 145.339 108.301H182.342C183.738 108.301 184.87 107.114 184.87 105.65V101.52C184.87 100.056 183.738 98.8695 182.342 98.8695Z" fill="#1ABA64"/>
<path d="M203.702 117.732H123.979C122.583 117.732 121.452 118.918 121.452 120.382V124.512C121.452 125.976 122.583 127.163 123.979 127.163H203.702C205.098 127.163 206.23 125.976 206.23 124.512V120.382C206.23 118.918 205.098 117.732 203.702 117.732Z" fill="#232320"/>
<path d="M203.702 136.594H123.979C122.583 136.594 121.452 137.78 121.452 139.244V143.374C121.452 144.838 122.583 146.025 123.979 146.025H203.702C205.098 146.025 206.23 144.838 206.23 143.374V139.244C206.23 137.78 205.098 136.594 203.702 136.594Z" fill="#232320"/>
<path d="M128.371 204.614C128.378 208.499 127.718 212.353 126.423 215.993H97.3527C96.0313 215.99 94.7646 215.439 93.8302 214.459C92.8959 213.479 92.37 212.151 92.3677 210.765V172.424C93.992 172.148 95.6347 172.01 97.2801 172.011C101.363 172.011 105.406 172.854 109.179 174.492C112.951 176.13 116.378 178.532 119.266 181.56C122.153 184.587 124.443 188.181 126.005 192.137C127.568 196.093 128.372 200.333 128.371 204.614V204.614Z" fill="#1ABA64"/>
<path opacity="0.2" d="M385.393 74.7335V71.9513H340.922V39.7068H338.28V71.9514H287.311V39.7068H284.668V71.9514H251.006C250.633 72.8751 250.27 73.7989 249.928 74.7335H284.668V129.268H241.534C241.575 130.203 241.637 131.126 241.71 132.05H284.668V175.554H252.488C252.882 176.488 253.297 177.412 253.732 178.325H284.668V214.895H287.311V178.325H338.28V214.895H340.922V178.325H385.393V175.554H340.922V175.554C340.922 169.841 341.995 164.184 344.08 158.906C346.165 153.627 349.221 148.832 353.073 144.792C356.926 140.752 361.499 137.548 366.533 135.362C371.566 133.175 376.961 132.05 382.409 132.05H385.393V129.268H340.922V74.7335H385.393ZM338.28 175.554H287.311V132.05H338.28V175.554ZM338.28 129.268H287.311V128.181C287.311 114.006 292.68 100.411 302.239 90.3879C311.798 80.3646 324.762 74.7335 338.28 74.7335H338.28V129.268Z" fill="#232320"/>
<path d="M349.587 195.402C349.02 195.43 348.459 195.274 347.979 194.955C347.499 194.637 347.124 194.171 346.905 193.622C346.686 193.072 346.633 192.466 346.754 191.884C346.875 191.302 347.163 190.773 347.58 190.369C347.65 190.078 347.7 189.869 347.77 189.578C347.745 189.514 347.72 189.451 347.695 189.388C345.145 183.012 336.504 183.056 333.976 189.441C331.732 195.108 328.875 200.785 328.172 206.776C327.862 209.425 327.993 212.11 328.558 214.711C323.288 202.656 320.551 189.554 320.534 176.293C320.533 172.965 320.709 169.64 321.062 166.333C321.353 163.621 321.758 160.929 322.276 158.257C325.1 143.756 331.165 130.164 339.972 118.598C344.234 116.16 347.681 112.409 349.848 107.853C350.633 106.215 351.188 104.467 351.496 102.662C351.015 102.728 350.526 102.77 350.045 102.803C349.895 102.811 349.738 102.819 349.588 102.827L349.532 102.83C349.003 102.855 348.479 102.719 348.023 102.439C347.566 102.159 347.196 101.746 346.958 101.251C346.72 100.755 346.624 100.199 346.68 99.647C346.737 99.0955 346.945 98.573 347.278 98.1423C347.486 97.8744 347.693 97.6066 347.901 97.339C348.216 96.9256 348.54 96.5206 348.855 96.1074C348.891 96.0681 348.926 96.0267 348.957 95.9833C349.32 95.5122 349.683 95.0493 350.045 94.5782C349.383 93.501 348.493 92.5986 347.444 91.9415C343.81 89.7098 338.797 91.2554 336.172 94.7022C333.539 98.1489 333.043 102.984 333.957 107.291C334.738 110.977 336.44 114.358 338.356 117.573C338.159 117.838 337.954 118.094 337.757 118.359C334.154 123.216 331.015 128.432 328.383 133.931C329.023 127.77 328.259 121.538 326.154 115.747C324.02 110.35 320.021 105.804 316.5 101.138C312.27 95.5341 303.596 97.9799 302.851 105.084C302.844 105.153 302.837 105.222 302.83 105.291C303.353 105.6 303.865 105.928 304.366 106.276C304.995 106.717 305.483 107.347 305.765 108.083C306.047 108.82 306.11 109.628 305.947 110.403C305.783 111.178 305.4 111.883 304.847 112.426C304.295 112.969 303.599 113.324 302.851 113.445L302.775 113.457C302.961 115.434 303.29 117.393 303.76 119.317C305.121 124.69 307.525 129.71 310.822 134.062C314.12 138.414 318.239 142.006 322.922 144.61C323.229 144.776 323.529 144.941 323.836 145.098C321.192 152.956 319.533 161.142 318.902 169.449C318.545 174.349 318.566 179.273 318.965 184.17L318.941 183.996C317.932 178.551 315.162 173.637 311.098 170.085C305.063 164.886 296.536 162.971 290.024 158.792C286.89 156.781 282.874 159.38 283.421 163.191C283.429 163.252 283.438 163.313 283.447 163.373C284.418 163.788 285.363 164.266 286.277 164.803C286.8 165.113 287.312 165.441 287.813 165.789C288.442 166.23 288.93 166.86 289.212 167.596C289.494 168.333 289.557 169.141 289.394 169.916C289.23 170.691 288.847 171.396 288.294 171.939C287.742 172.481 287.046 172.837 286.298 172.957L286.222 172.97C286.167 172.978 286.119 172.986 286.064 172.995C287.723 177.147 290.05 180.969 292.945 184.294C296.522 188.318 300.844 191.534 305.648 193.744C310.451 195.954 315.635 197.112 320.88 197.147H320.888C322.312 203.635 324.375 209.951 327.045 215.993H349.036C349.115 215.736 349.186 215.472 349.257 215.216C347.221 215.35 345.178 215.222 343.172 214.835C344.803 212.736 346.435 210.62 348.067 208.52C348.103 208.481 348.137 208.44 348.169 208.396C348.997 207.322 349.832 206.256 350.66 205.181L350.66 205.18C350.705 201.886 350.344 198.6 349.588 195.403L349.587 195.402ZM324.404 143.453L324.415 143.437L324.404 143.47V143.453ZM319.533 189.501L319.343 189.055C319.351 188.732 319.351 188.41 319.343 188.08C319.343 187.989 319.328 187.898 319.328 187.807C319.399 188.377 319.462 188.947 319.54 189.518L319.533 189.501Z" fill="#232320"/>
<path d="M153.758 141.467V110.473C153.758 105.716 151.956 101.153 148.748 97.789C145.54 94.4249 141.189 92.535 136.652 92.535H74.0322C69.4953 92.535 65.1442 94.4249 61.9361 97.789C58.7281 101.153 56.9258 105.716 56.9258 110.473V280.507C56.9258 285.265 58.7281 289.827 61.9361 293.191C65.1442 296.556 69.4953 298.446 74.0322 298.446H136.652C138.898 298.446 141.123 297.982 143.198 297.08C145.273 296.179 147.159 294.857 148.748 293.192C150.336 291.526 151.596 289.548 152.456 287.372C153.316 285.196 153.758 282.863 153.758 280.507V163.529C154.044 163.529 154.319 163.41 154.521 163.197C154.723 162.985 154.837 162.698 154.837 162.397V142.598C154.837 142.298 154.723 142.011 154.521 141.798C154.319 141.586 154.044 141.467 153.758 141.467V141.467Z" fill="#232320"/>
<path d="M150.118 110.596V280.385C150.118 283.912 148.791 287.296 146.426 289.803C144.06 292.31 140.847 293.737 137.484 293.773C137.438 293.779 137.391 293.781 137.344 293.78H74.42C71.0324 293.779 67.7835 292.368 65.3881 289.856C62.9927 287.344 61.6468 283.937 61.6465 280.385V110.596C61.6468 107.044 62.9927 103.637 65.3881 101.125C67.7836 98.6134 71.0324 97.202 74.42 97.2017H82.0562C81.6808 98.1684 81.5377 99.2171 81.6396 100.255C81.7414 101.294 82.0851 102.29 82.6402 103.156C83.1954 104.022 83.9451 104.732 84.8234 105.224C85.7017 105.715 86.6817 105.972 87.677 105.973H123.551C124.546 105.97 125.524 105.711 126.401 105.219C127.278 104.727 128.027 104.017 128.581 103.152C129.135 102.286 129.479 101.29 129.581 100.253C129.683 99.2158 129.54 98.168 129.166 97.2017H137.344C140.732 97.202 143.981 98.6134 146.376 101.125C148.772 103.637 150.117 107.044 150.118 110.596Z" fill="#232320"/>
<path d="M137.641 288.539C137.641 290.298 137.589 292.043 137.484 293.773C137.438 293.778 137.391 293.78 137.344 293.779H74.42C71.0324 293.779 67.7835 292.368 65.3881 289.856C62.9927 287.344 61.6468 283.937 61.6465 280.385V204.72C82.1482 205.804 101.469 215.108 115.613 230.708C129.757 246.309 137.644 267.013 137.641 288.539V288.539Z" fill="#F2F2F2"/>
<path d="M57.2721 158.806C56.886 158.806 56.5159 158.645 56.2429 158.358C55.9699 158.072 55.8164 157.684 55.8159 157.279V146.896C55.8159 146.491 55.9693 146.102 56.2424 145.816C56.5155 145.53 56.8859 145.369 57.2721 145.369C57.6583 145.369 58.0287 145.53 58.3018 145.816C58.5748 146.102 58.7283 146.491 58.7283 146.896V157.279C58.7278 157.684 58.5742 158.072 58.3013 158.358C58.0283 158.645 57.6582 158.806 57.2721 158.806Z" fill="#232320"/>
<path d="M113.608 150.515H98.1557C96.7599 150.515 95.6284 151.702 95.6284 153.165V157.296C95.6284 158.76 96.7599 159.946 98.1557 159.946H113.608C115.004 159.946 116.135 158.76 116.135 157.296V153.165C116.135 151.702 115.004 150.515 113.608 150.515Z" fill="#1ABA64"/>
<path d="M134.968 169.377H76.7959C75.4001 169.377 74.2686 170.564 74.2686 172.027V176.158C74.2686 177.622 75.4001 178.808 76.7959 178.808H134.968C136.364 178.808 137.495 177.622 137.495 176.158V172.027C137.495 170.564 136.364 169.377 134.968 169.377Z" fill="#232320"/>
<path d="M134.968 188.239H76.7959C75.4001 188.239 74.2686 189.426 74.2686 190.889V195.02C74.2686 196.484 75.4001 197.67 76.7959 197.67H134.968C136.364 197.67 137.495 196.484 137.495 195.02V190.889C137.495 189.426 136.364 188.239 134.968 188.239Z" fill="#232320"/>
<path d="M120.971 284.117C120.705 284.13 120.441 284.057 120.216 283.907C119.991 283.758 119.815 283.539 119.713 283.282C119.61 283.024 119.585 282.739 119.642 282.466C119.698 282.193 119.834 281.945 120.029 281.755L120.118 281.384C120.107 281.354 120.095 281.324 120.083 281.295C119.815 280.63 119.365 280.064 118.791 279.667C118.217 279.27 117.544 279.059 116.856 279.062C116.168 279.064 115.496 279.28 114.925 279.682C114.354 280.084 113.909 280.653 113.645 281.32C112.592 283.979 111.252 286.643 110.922 289.455C110.776 290.697 110.837 291.957 111.103 293.178C108.63 287.521 107.346 281.373 107.337 275.15C107.337 273.588 107.419 272.028 107.585 270.476C107.722 269.203 107.912 267.94 108.155 266.686C109.48 259.881 112.326 253.503 116.459 248.076C118.459 246.931 120.077 245.171 121.094 243.033C121.462 242.265 121.722 241.444 121.867 240.597C121.641 240.628 121.412 240.648 121.186 240.663C121.116 240.667 121.042 240.671 120.972 240.675L120.945 240.676C120.697 240.688 120.451 240.624 120.237 240.492C120.023 240.361 119.849 240.167 119.737 239.935C119.626 239.703 119.58 239.441 119.607 239.182C119.634 238.924 119.731 238.678 119.888 238.476C119.985 238.351 120.082 238.225 120.18 238.099C120.328 237.905 120.48 237.715 120.628 237.521C120.645 237.503 120.661 237.483 120.676 237.463C120.846 237.242 121.016 237.025 121.186 236.804C120.875 236.298 120.458 235.875 119.965 235.566C118.26 234.519 115.908 235.244 114.676 236.862C113.441 238.479 113.207 240.748 113.637 242.769C114.058 244.489 114.756 246.121 115.701 247.595C115.608 247.719 115.512 247.839 115.419 247.963C113.729 250.242 112.256 252.69 111.021 255.271C111.321 252.38 110.962 249.455 109.975 246.737C108.973 244.205 107.097 242.072 105.444 239.882C105.007 239.294 104.414 238.855 103.739 238.62C103.064 238.386 102.338 238.367 101.652 238.565C100.967 238.763 100.353 239.17 99.8875 239.734C99.4224 240.298 99.1273 240.994 99.0394 241.734C99.036 241.766 99.0327 241.798 99.0295 241.831C99.2749 241.976 99.5152 242.13 99.7503 242.293C100.046 242.5 100.274 242.796 100.407 243.141C100.539 243.487 100.569 243.866 100.492 244.23C100.415 244.594 100.235 244.924 99.9763 245.179C99.7171 245.434 99.3906 245.6 99.0395 245.657L99.0036 245.663C99.091 246.591 99.2456 247.51 99.466 248.413C100.104 250.934 101.233 253.29 102.78 255.332C104.327 257.375 106.261 259.06 108.458 260.282C108.602 260.36 108.743 260.437 108.887 260.511C107.646 264.199 106.868 268.04 106.572 271.938C106.404 274.238 106.414 276.548 106.601 278.846L106.59 278.765C106.117 276.209 104.817 273.903 102.91 272.237C100.077 269.797 96.0758 268.898 93.0203 266.937C92.6955 266.719 92.318 266.602 91.9321 266.601C91.5462 266.6 91.168 266.715 90.8423 266.932C90.5165 267.149 90.2568 267.459 90.0936 267.826C89.9304 268.192 89.8707 268.6 89.9213 269.001L89.9338 269.087C90.3893 269.282 90.8328 269.506 91.2617 269.758C91.5072 269.903 91.7475 270.057 91.9825 270.22C92.2779 270.427 92.5067 270.723 92.6391 271.069C92.7714 271.414 92.8012 271.794 92.7243 272.157C92.6475 272.521 92.4677 272.852 92.2085 273.106C91.9493 273.361 91.6228 273.528 91.2718 273.585L91.2358 273.59C91.2099 273.594 91.1877 273.598 91.1618 273.602C91.9401 275.551 93.0324 277.344 94.391 278.904C96.0692 280.793 98.0976 282.302 100.352 283.339C102.606 284.376 105.038 284.919 107.5 284.936H107.504C108.172 287.981 109.14 290.944 110.393 293.779H120.713C120.75 293.659 120.783 293.535 120.816 293.415C119.861 293.478 118.902 293.418 117.961 293.236C118.726 292.251 119.492 291.258 120.258 290.273C120.275 290.255 120.291 290.235 120.306 290.215C120.694 289.711 121.086 289.21 121.475 288.706L121.475 288.705C121.495 287.16 121.326 285.618 120.972 284.117L120.971 284.117ZM109.153 259.739L109.159 259.731L109.153 259.747V259.739ZM106.868 281.348L106.779 281.138C106.782 280.987 106.782 280.836 106.779 280.681C106.779 280.638 106.771 280.595 106.771 280.553C106.805 280.82 106.834 281.088 106.871 281.356L106.868 281.348Z" fill="#0D0B0B"/>
<path d="M56.9806 138.65C56.5945 138.649 56.2244 138.488 55.9514 138.202C55.6784 137.916 55.5249 137.528 55.5244 137.123V126.739C55.5244 126.334 55.6778 125.946 55.9509 125.66C56.224 125.373 56.5944 125.212 56.9806 125.212C57.3668 125.212 57.7372 125.373 58.0103 125.66C58.2833 125.946 58.4368 126.334 58.4368 126.739V137.123C58.4363 137.528 58.2827 137.916 58.0098 138.202C57.7368 138.488 57.3666 138.649 56.9806 138.65V138.65Z" fill="#232320"/>
<path d="M95.7148 98.9483C95.7153 98.5435 95.8689 98.1554 96.1418 97.8691C96.4148 97.5828 96.785 97.4218 97.171 97.4213H107.073C107.459 97.4213 107.83 97.5822 108.103 97.8686C108.376 98.1549 108.529 98.5433 108.529 98.9483C108.529 99.3533 108.376 99.7417 108.103 100.028C107.83 100.314 107.459 100.475 107.073 100.475H97.171C96.785 100.475 96.4148 100.314 96.1418 100.028C95.8689 99.7413 95.7153 99.3531 95.7148 98.9483Z" fill="#232320"/>
<path d="M57.2721 176.519C56.886 176.519 56.5159 176.358 56.2429 176.071C55.9699 175.785 55.8164 175.397 55.8159 174.992V164.609C55.8159 164.204 55.9693 163.815 56.2424 163.529C56.5155 163.243 56.8859 163.082 57.2721 163.082C57.6583 163.082 58.0287 163.243 58.3018 163.529C58.5748 163.815 58.7283 164.204 58.7283 164.609V174.992C58.7278 175.397 58.5742 175.785 58.3013 176.071C58.0283 176.358 57.6582 176.519 57.2721 176.519V176.519Z" fill="#232320"/>
<path d="M112.607 100.475C113.411 100.475 114.063 99.7916 114.063 98.9483C114.063 98.105 113.411 97.4213 112.607 97.4213C111.802 97.4213 111.15 98.105 111.15 98.9483C111.15 99.7916 111.802 100.475 112.607 100.475Z" fill="#232320"/>
<path d="M500.307 298.441L0.693484 298.629C0.509895 298.629 0.334011 298.552 0.204381 298.415C0.0747515 298.279 0.00195312 298.094 0.00195312 297.902C0.00195312 297.709 0.0747515 297.525 0.204381 297.388C0.334011 297.252 0.509895 297.175 0.693484 297.175L500.307 296.987C500.49 296.987 500.667 297.064 500.797 297.2C500.927 297.336 501 297.521 501 297.714C501 297.907 500.927 298.092 500.797 298.228C500.667 298.365 500.49 298.441 500.307 298.441Z" fill="#CACACA"/>
<path d="M213.634 138.104L211.006 138.695C210.989 137.542 210.852 136.395 210.597 135.273C210.358 136.647 209.855 137.955 209.118 139.117L194.046 142.493L179.575 126.479C179.553 118.472 183.793 112.388 191.396 112.388C191.854 112.388 192.329 112.411 192.809 112.457C196.916 111.736 201.13 112.715 204.564 115.187C207.997 117.658 210.382 121.431 211.216 125.709C216.604 131.273 214.65 134.544 213.634 138.104Z" fill="#100D0D"/>
<path d="M221.044 325.376H226.511L229.112 303.263L221.043 303.263L221.044 325.376Z" fill="#FFB6B6"/>
<path d="M219.688 322.548L228.331 322.007V325.89L236.547 331.841C236.953 332.135 237.259 332.557 237.42 333.046C237.581 333.535 237.588 334.065 237.441 334.559C237.295 335.052 237.001 335.484 236.604 335.79C236.207 336.097 235.726 336.262 235.233 336.262H224.944L223.171 332.421L222.478 336.262H218.599L219.688 322.548Z" fill="#100D0D"/>
<path d="M156.994 319.136L161.749 321.965L174.418 304.078L167.399 299.903L156.994 319.136Z" fill="#FFB6B6"/>
<path d="M157.145 315.975L164.917 319.977L163.089 323.354L167.435 332.781C167.65 333.247 167.717 333.772 167.627 334.281C167.537 334.789 167.294 335.254 166.934 335.608C166.574 335.961 166.116 336.185 165.626 336.246C165.136 336.307 164.641 336.202 164.212 335.947L155.263 330.622L155.528 326.364L153.118 329.346L149.744 327.338L157.145 315.975Z" fill="#100D0D"/>
<path d="M241.253 141.978C240.552 142.085 239.883 142.351 239.291 142.758C238.699 143.165 238.199 143.703 237.827 144.335C237.455 144.966 237.22 145.675 237.137 146.413C237.055 147.15 237.128 147.897 237.35 148.602L228.984 156.195L232.145 162.652L243.816 151.754C244.92 151.283 245.82 150.404 246.347 149.283C246.874 148.162 246.991 146.878 246.675 145.673C246.359 144.468 245.633 143.426 244.634 142.745C243.634 142.064 242.431 141.792 241.253 141.978H241.253Z" fill="#FFB6B6"/>
<path d="M232.828 168.09C230.038 172.522 223.783 176.802 214.501 180.597C213.989 180.812 213.44 180.914 212.888 180.895C212.337 180.876 211.796 180.737 211.298 180.487C207.795 178.816 205.55 172.601 205.339 171.998L198.555 162.401C198.434 162.261 195.262 158.485 195.625 154.773C195.706 153.996 195.948 153.246 196.332 152.575C196.716 151.904 197.235 151.328 197.851 150.888C202.987 146.895 214.497 160.761 215.991 162.605L223.503 157.805L228.977 155.244L233.395 149.606L239.617 156.276L234.021 165.611C233.723 166.486 233.322 167.319 232.828 168.09V168.09Z" fill="#100D0D"/>
<path d="M213.317 185.094C213.317 185.094 229.392 211.945 226.479 214.999C223.567 218.053 219.035 218.855 219.035 218.855L209.005 205.227L213.317 185.094Z" fill="#100D0D"/>
<path d="M199.104 148.423L206.68 153.797C210.201 156.295 212.85 159.929 214.224 164.148C215.598 168.367 215.623 172.941 214.294 177.176L212.161 183.975L199.104 148.423Z" fill="#100D0D"/>
<path d="M185.706 221.718L184.694 225.418L181.237 270.031L163.969 303.777L172.211 309.95L195.758 277.849L205.072 245.976L219.698 316.535L230.687 315.711L223.055 217.883L208.573 190.347L185.706 221.718Z" fill="#100D0D"/>
<path d="M197.815 149.774L208.359 158.811C210.674 160.794 212.34 163.485 213.127 166.509V166.509C213.484 167.882 213.653 169.301 213.631 170.724L213.316 190.347L222.984 217.442C222.984 217.442 196.773 227.826 193.278 218.664C189.784 209.502 197.815 149.774 197.815 149.774Z" fill="#1ABA64"/>
<path d="M200.968 223.42C187.875 223.42 184.683 223.523 184.477 223.479L184.27 223.436V215.177L187.454 200.34C187.082 195.734 186.21 189.66 186.289 184.46C186.574 165.662 185.693 147.301 185.693 147.301L192.623 140.593L195.772 142.741L201.612 148.865C208.4 166.383 213.787 182.876 213.821 183.936L214.247 202.173L212.5 209.502C204.595 215.354 211.818 223.42 200.968 223.42Z" fill="#100D0D"/>
<path opacity="0.2" d="M188.63 163.676L187.039 174.095L197.815 178.756L188.63 163.676Z" fill="#232320"/>
<path d="M199.486 138.638C205.313 138.638 210.037 133.685 210.037 127.574C210.037 121.464 205.313 116.511 199.486 116.511C193.659 116.511 188.936 121.464 188.936 127.574C188.936 133.685 193.659 138.638 199.486 138.638Z" fill="#FFB6B6"/>
<path opacity="0.2" d="M181.808 183.71C184.616 187.12 188.424 189.454 192.635 190.347C196.846 191.239 201.221 190.639 205.071 188.641L207.367 187.449L181.808 183.71Z" fill="#232320"/>
<path d="M218.521 181.164C218.051 180.609 217.47 180.17 216.82 179.876C216.17 179.582 215.466 179.442 214.759 179.464C214.051 179.487 213.357 179.671 212.725 180.006C212.093 180.34 211.538 180.815 211.1 181.399L200.448 178.263L197.051 184.586L212.154 188.793C213.137 189.5 214.334 189.803 215.516 189.647C216.698 189.49 217.785 188.884 218.57 187.944C219.354 187.004 219.783 185.794 219.774 184.544C219.765 183.294 219.32 182.092 218.521 181.164H218.521Z" fill="#FFB6B6"/>
<path d="M193.1 188.181C188.035 188.182 181.182 185.068 173.047 179.036C172.594 178.707 172.211 178.283 171.922 177.79C171.633 177.297 171.445 176.747 171.37 176.174C170.77 172.187 174.478 166.798 174.841 166.281L178.74 155.056C178.784 154.873 180.041 150.016 183.194 148.288C183.858 147.931 184.588 147.729 185.334 147.696C186.08 147.662 186.823 147.799 187.514 148.095C193.521 150.389 188.83 168.102 188.186 170.425L196.145 174.354L201.199 177.732L208.121 178.491L206.242 187.611L195.73 187.859C194.869 188.08 193.986 188.188 193.1 188.181V188.181Z" fill="#100D0D"/>
<path d="M212.138 120.296C211.293 121.448 208.384 122.467 204.927 123.289C204.933 123.214 204.933 123.139 204.933 123.063C204.916 121.911 204.779 120.763 204.524 119.642C204.285 121.015 203.782 122.323 203.045 123.486C202.989 123.573 202.934 123.66 202.874 123.746C199.909 124.36 196.773 124.835 194.316 125.153C196.005 131.533 202.482 136.767 201.78 140.646L182.805 144.71C182.922 143.098 182.799 141.477 182.441 139.905C182.078 141.98 181.118 143.889 179.691 145.376L178.079 145.723L177.599 143.239C173.436 132.755 179.238 122.021 188.745 116.469C190.44 113.805 193.073 111.952 196.066 111.317L198.435 110.807C199.929 110.487 201.468 110.478 202.965 110.781C204.462 111.085 205.888 111.694 207.16 112.575C208.433 113.457 209.527 114.592 210.381 115.917C211.235 117.241 211.832 118.729 212.138 120.296Z" fill="#100D0D"/>
<path d="M257.467 320.872L257.748 314.256C260.673 312.617 263.935 311.751 267.252 311.733C262.687 315.647 263.258 323.191 260.163 328.454C259.186 330.087 257.87 331.469 256.314 332.497C254.759 333.526 253.002 334.173 251.175 334.393L247.355 336.846C246.831 333.781 246.946 330.634 247.694 327.621C248.441 324.609 249.802 321.801 251.684 319.393C252.752 318.053 253.977 316.86 255.33 315.841C256.245 318.37 257.467 320.872 257.467 320.872Z" fill="#F2F2F2"/>
<path d="M266.728 337H133.703C133.519 336.999 133.343 336.923 133.214 336.786C133.084 336.65 133.011 336.465 133.011 336.273C133.011 336.08 133.084 335.896 133.214 335.759C133.343 335.623 133.519 335.546 133.703 335.545H266.728C266.82 335.545 266.91 335.564 266.994 335.6C267.079 335.637 267.155 335.69 267.22 335.758C267.285 335.825 267.336 335.906 267.371 335.994C267.406 336.082 267.424 336.177 267.424 336.273C267.424 336.368 267.406 336.463 267.371 336.552C267.336 336.64 267.285 336.72 267.22 336.788C267.155 336.855 267.079 336.909 266.994 336.945C266.91 336.982 266.82 337 266.728 337Z" fill="#CACACA"/>
</g>
<defs>
<clipPath id="clip0_38_2">
<rect width="501" height="337" fill="white"/>
</clipPath>
</defs>
</svg>
