<svg width="433" height="433" viewBox="0 0 433 433" fill="none" xmlns="http://www.w3.org/2000/svg">
<path d="M368.875 368.878H304.725V268.419C304.725 244.462 304.299 213.635 271.36 213.635C237.952 213.635 232.832 239.726 232.832 266.691V368.878H168.704V162.286H230.293V190.51H231.147C243.712 169.048 267.051 156.227 291.904 157.144C356.928 157.144 368.896 199.918 368.896 255.534L368.875 368.878ZM96.32 134.04C75.7547 134.04 59.0933 117.379 59.0933 96.8136C59.0933 76.2483 75.7547 59.5869 96.32 59.5869C116.885 59.5869 133.547 76.2483 133.547 96.8136C133.547 117.379 116.885 134.04 96.32 134.04ZM128.384 368.878H64.1707V162.286H128.384V368.878ZM400.853 0.0242473H31.936C14.5067 -0.167753 0.213333 13.8056 0 31.2349V401.667C0.213333 419.118 14.5067 433.091 31.936 432.899H400.853C418.325 433.112 432.683 419.139 432.917 401.667V31.2136C432.661 13.7416 418.304 -0.231754 400.853 0.00291297" fill="#F2F2F2"/>
</svg>
