<svg width="121" height="110" viewBox="0 0 121 110" fill="none" xmlns="http://www.w3.org/2000/svg">
<path d="M102.574 16.8168L60.3395 55.1468" stroke="#1ABA64" stroke-linecap="round" stroke-linejoin="round"/>
<path d="M18.4278 93.1838L60.6621 54.8539" stroke="#1ABA64" stroke-linecap="round" stroke-linejoin="round"/>
<path d="M60.5002 1V55.2067" stroke="#1ABA64" stroke-linecap="round" stroke-linejoin="round"/>
<path d="M60.5002 109V54.7932" stroke="#1ABA64" stroke-linecap="round" stroke-linejoin="round"/>
<path d="M18.4278 16.8168L60.6621 55.1468" stroke="#1ABA64" stroke-linecap="round" stroke-linejoin="round"/>
<path d="M102.574 93.1838L60.3395 54.8539" stroke="#1ABA64" stroke-linecap="round" stroke-linejoin="round"/>
<path d="M1 54.9998H60.7283" stroke="#1ABA64" stroke-linecap="round" stroke-linejoin="round"/>
<path d="M120 54.9998H60.2717" stroke="#1ABA64" stroke-linecap="round" stroke-linejoin="round"/>
<path d="M83.9278 33.7374C83.9278 33.7374 77.2341 45.8874 93.9685 54.9998" stroke="#1ABA64" stroke-linecap="round" stroke-linejoin="round"/>
<path d="M79.3672 38.0649C79.3672 38.0649 73.7436 47.7054 87.8027 54.9357" stroke="#1ABA64" stroke-linecap="round" stroke-linejoin="round"/>
<path d="M75.7165 41.5554C75.7165 41.5554 69.7804 49.2013 84.6206 54.9357" stroke="#1ABA64" stroke-linecap="round" stroke-linejoin="round"/>
<path d="M70.1661 46.2094C70.1661 46.2094 65.4797 51.1959 77.1957 54.9357" stroke="#1ABA64" stroke-linecap="round" stroke-linejoin="round"/>
<path d="M72.5344 43.8824C72.5344 43.8824 66.5983 50.1986 81.4385 54.9358" stroke="#1ABA64" stroke-linecap="round" stroke-linejoin="round"/>
<path d="M88.9392 29.6731C88.9392 29.6731 82.2154 44.3773 99.0249 55.4054" stroke="#1ABA64" stroke-linecap="round" stroke-linejoin="round"/>
<path d="M83.9285 33.7373C83.9285 33.7373 70.5409 39.8123 60.5002 24.6249" stroke="#1ABA64" stroke-linecap="round" stroke-linejoin="round"/>
<path d="M79.3171 37.4282C79.3171 37.4282 68.71 43.5969 60.7548 28.1751" stroke="#1ABA64" stroke-linecap="round" stroke-linejoin="round"/>
<path d="M75.6046 40.7833C75.6046 40.7833 67.119 47.6374 60.7548 30.5021" stroke="#1ABA64" stroke-linecap="round" stroke-linejoin="round"/>
<path d="M70.1546 46.0348C70.1546 46.0348 64.7833 52.5314 60.7549 36.29" stroke="#1ABA64" stroke-linecap="round" stroke-linejoin="round"/>
<path d="M73.5116 43.1795C73.5116 43.1795 66.2221 49.243 60.7549 34.0844" stroke="#1ABA64" stroke-linecap="round" stroke-linejoin="round"/>
<path d="M88.8634 29.2836C88.8634 29.2836 72.8013 35.4523 60.7548 20.0306" stroke="#1ABA64" stroke-linecap="round" stroke-linejoin="round"/>
<path d="M37.072 76.2624C37.072 76.2624 50.4596 70.1875 60.5002 85.3749" stroke="#1ABA64" stroke-linecap="round" stroke-linejoin="round"/>
<path d="M42.1924 71.8616C42.1924 71.8616 52.4964 65.6929 60.2244 81.1147" stroke="#1ABA64" stroke-linecap="round" stroke-linejoin="round"/>
<path d="M45.3745 68.9528C45.3745 68.9528 53.8602 62.7841 60.2244 78.2059" stroke="#1ABA64" stroke-linecap="round" stroke-linejoin="round"/>
<path d="M51.2084 63.7171C51.2084 63.7171 56.3604 57.5484 60.2244 72.9702" stroke="#1ABA64" stroke-linecap="round" stroke-linejoin="round"/>
<path d="M47.4959 67.1399C47.4959 67.1399 55.0724 61.3139 60.7548 75.8789" stroke="#1ABA64" stroke-linecap="round" stroke-linejoin="round"/>
<path d="M31.2131 81.6002C31.2131 81.6002 47.7105 75.5367 60.0835 90.6954" stroke="#1ABA64" stroke-linecap="round" stroke-linejoin="round"/>
<path d="M37.072 76.2622C37.072 76.2622 43.7658 64.1122 27.0313 54.9998" stroke="#1ABA64" stroke-linecap="round" stroke-linejoin="round"/>
<path d="M41.4268 71.8066C41.4268 71.8066 47.9877 62.1661 31.5854 54.9357" stroke="#1ABA64" stroke-linecap="round" stroke-linejoin="round"/>
<path d="M44.6089 69.4796C44.6089 69.4796 51.1699 61.1688 34.7675 54.9357" stroke="#1ABA64" stroke-linecap="round" stroke-linejoin="round"/>
<path d="M51.3699 63.4927C51.3699 63.4927 58.0937 58.8714 41.2842 55.4054" stroke="#1ABA64" stroke-linecap="round" stroke-linejoin="round"/>
<path d="M48.0129 66.4335C48.0129 66.4335 54.7367 60.1317 37.9272 55.4054" stroke="#1ABA64" stroke-linecap="round" stroke-linejoin="round"/>
<path d="M31.8992 81.1377C31.8992 81.1377 38.623 66.4335 21.8135 55.4054" stroke="#1ABA64" stroke-linecap="round" stroke-linejoin="round"/>
<path d="M37.072 33.7373C37.072 33.7373 50.4596 39.8123 60.5002 24.6249" stroke="#1ABA64" stroke-linecap="round" stroke-linejoin="round"/>
<path d="M41.1317 36.8464C41.1317 36.8464 52.3449 43.0151 60.7548 27.5934" stroke="#1ABA64" stroke-linecap="round" stroke-linejoin="round"/>
<path d="M44.3138 40.3369C44.3138 40.3369 53.4056 46.5056 60.2244 31.0839" stroke="#1ABA64" stroke-linecap="round" stroke-linejoin="round"/>
<path d="M50.6839 46.0348C50.6839 46.0348 56.0551 52.5314 60.0835 36.29" stroke="#1ABA64" stroke-linecap="round" stroke-linejoin="round"/>
<path d="M47.9982 43.1795C47.9982 43.1795 54.9041 49.243 60.0835 34.0844" stroke="#1ABA64" stroke-linecap="round" stroke-linejoin="round"/>
<path d="M32.1157 29.2836C32.1157 29.2836 48.1778 35.4523 60.2244 20.0306" stroke="#1ABA64" stroke-linecap="round" stroke-linejoin="round"/>
<path d="M37.072 33.7374C37.072 33.7374 43.7658 45.8874 27.0313 54.9998" stroke="#1ABA64" stroke-linecap="round" stroke-linejoin="round"/>
<path d="M44.6089 40.9737C44.6089 40.9737 51.1699 48.952 34.7675 54.9358" stroke="#1ABA64" stroke-linecap="round" stroke-linejoin="round"/>
<path d="M41.0198 36.9014C41.0198 36.9014 46.9559 47.5392 32.1157 55.5175" stroke="#1ABA64" stroke-linecap="round" stroke-linejoin="round"/>
<path d="M50.1834 45.8477C50.1834 45.8477 56.1162 50.8891 41.2842 54.6702" stroke="#1ABA64" stroke-linecap="round" stroke-linejoin="round"/>
<path d="M48.0129 43.642C48.0129 43.642 54.7367 49.9438 37.9272 54.6702" stroke="#1ABA64" stroke-linecap="round" stroke-linejoin="round"/>
<path d="M31.8992 29.6731C31.8992 29.6731 38.623 44.3773 21.8135 55.4054" stroke="#1ABA64" stroke-linecap="round" stroke-linejoin="round"/>
<path d="M83.9278 76.2622C83.9278 76.2622 77.2341 64.1122 93.9685 54.9998" stroke="#1ABA64" stroke-linecap="round" stroke-linejoin="round"/>
<path d="M75.8399 68.3161C75.8399 68.3161 69.279 60.6702 85.6813 54.9357" stroke="#1ABA64" stroke-linecap="round" stroke-linejoin="round"/>
<path d="M78.4917 71.2248C78.4917 71.2248 71.9307 61.9168 88.3331 54.9357" stroke="#1ABA64" stroke-linecap="round" stroke-linejoin="round"/>
<path d="M69.4757 63.0803C69.4757 63.0803 62.9148 58.4262 79.3171 54.9357" stroke="#1ABA64" stroke-linecap="round" stroke-linejoin="round"/>
<path d="M72.5344 65.989C72.5344 65.989 66.5983 59.6729 81.4385 54.9357" stroke="#1ABA64" stroke-linecap="round" stroke-linejoin="round"/>
<path d="M88.9392 81.1377C88.9392 81.1377 82.2154 66.4335 99.0249 55.4054" stroke="#1ABA64" stroke-linecap="round" stroke-linejoin="round"/>
<path d="M83.9285 76.2624C83.9285 76.2624 70.5409 70.1875 60.5002 85.3749" stroke="#1ABA64" stroke-linecap="round" stroke-linejoin="round"/>
<path d="M76.135 69.5345C76.135 69.5345 67.3463 63.3658 60.7548 78.7876" stroke="#1ABA64" stroke-linecap="round" stroke-linejoin="round"/>
<path d="M79.3171 71.8616C79.3171 71.8616 68.71 65.6929 60.7548 81.1147" stroke="#1ABA64" stroke-linecap="round" stroke-linejoin="round"/>
<path d="M73.5116 66.896C73.5116 66.896 66.2221 60.8326 60.7549 75.9912" stroke="#1ABA64" stroke-linecap="round" stroke-linejoin="round"/>
<path d="M70.3011 63.7171C70.3011 63.7171 64.8461 57.5484 60.7548 72.9702" stroke="#1ABA64" stroke-linecap="round" stroke-linejoin="round"/>
<path d="M90.2967 82.3354C90.2967 82.3354 73.4157 76.272 60.7549 91.4306" stroke="#1ABA64" stroke-linecap="round" stroke-linejoin="round"/>
</svg>
