<svg width="512" height="362" viewBox="0 0 512 362" fill="none" xmlns="http://www.w3.org/2000/svg">
<path d="M501.291 56.9679C495.403 34.8026 478.059 17.3306 456.021 11.4C416.107 0.647953 256 0.647949 256 0.647949C256 0.647949 95.8933 0.647953 55.9573 11.4C33.9413 17.3306 16.5973 34.7813 10.7093 56.9679C0 97.16 0 181 0 181C0 181 0 264.84 10.7093 305.032C16.5973 327.197 33.9413 344.669 55.9787 350.6C95.8933 361.352 256 361.352 256 361.352C256 361.352 416.107 361.352 456.043 350.6C478.059 344.669 495.403 327.219 501.312 305.032C512 264.84 512 181 512 181C512 181 512 97.16 501.291 56.9679ZM203.648 257.139V104.861L337.451 181L203.648 257.139Z" fill="#F2F2F2"/>
</svg>
